<svg id="egfCR3kpaUn1" xmlns="http://www.w3.org/2000/svg" xmlns:xlink="http://www.w3.org/1999/xlink" viewBox="0 0 500 500" shape-rendering="geometricPrecision" text-rendering="geometricPrecision"><g transform="translate(0 0.638827)"><ellipse rx="238.81" ry="131.05" transform="translate(250 334.87)" fill="#f5f5f5"/></g><g transform="matrix(3.289756 0 0 3.289756-524.197863-213.819511)"><g><path d="M206.15,164.44l39.22-22.37c.943744-.474366,2.056256-.474366,3,0l39.5,22.8c.364132.1319.606671.477715.606671.865s-.242539.7331-.606671.865L248.8,189.2c-.941809.482458-2.058191.482458-3,0l-39.68-23c-.398094-.111883-.670702-.478111-.663655-.891568s.291979-.770182.693655-.868432Z" opacity="0.2"/><path d="M185,179.15l28.54,16.48c2.007716,1.020716,4.382284,1.020716,6.39,0l7.45-4.32c1.76-1,1.76-2.67,0-3.69l-28.55-16.48c-2.003043-1.02549-4.376957-1.02549-6.38,0L185,175.46c-1.76,1.02-1.76,2.67,0,3.69Z" opacity="0.2"/></g><g><path d="M242.09,136.44c-.26-1.51-1.33-2.24-2.65-2.83-.12-.06-.27-.05-.36-.1s-.09-.12-.15-.18c-.939472-.874609-2.134661-1.424886-3.41-1.57-.29,0-.55,0-.84,0-1.32221-.854493-2.877147-1.277296-4.45-1.21-.619048.056367-1.219008.243854-1.76.55-.076437-.052523-.156656-.099317-.24-.14-1.424071-.673295-3.101446-.52011-4.38.4-.224754-.116263-.463315-.203624-.71-.26-.679603-.076173-1.367444.020125-2,.28-.629634.238374-1.217062.575976-1.74,1-.314605.29993-.593153.635531-.83,1-.149626-.014971-.300374-.014971-.45,0-1.254983.222475-2.366227.944062-3.08,2-.08.1-.12.21-.2.31-1.032099-.012979-2.035184.341468-2.83,1-.696678.639982-1.181586,1.477232-1.39,2.4v0c-1.224572.631253-2.099017,1.781258-2.38,3.13-.092095.668608-.047873,1.34894.13,2-.991707.606444-1.708868,1.574611-2,2.7-.092208.52922-.018872,1.074002.21,1.56-.410526.221377-.796073.486231-1.15.79-.288406.291182-.525122.629349-.7,1-.478713.023086-.952531.107096-1.41.25-.20397.077096-.401294.170741-.59.28-1.230277-.504559-2.609723-.504559-3.84,0-.19.06-.33.16-.5.23-1.175696-.47537-2.484756-.503828-3.68-.08-.994344-.579457-2.143305-.837886-3.29-.74-.654568.105932-1.282646.336794-1.85.68-.728098-.255159-1.508503-.323918-2.27-.2-1.189876.338878-2.203419,1.123211-2.83,2.19-.091217.187242-.168104.381131-.23.58-.42312.15784-.808174.403184-1.13.72-.518562.619782-.832905,1.384683-.9,2.19-.019714.232917-.019714.467083,0,.7.027134.529402.174167,1.045724.43,1.51-.557973,1.288641-.26369,2.787893.74,3.77.246848.225522.5226.417203.82.57-.005369.07991-.005369.16009,0,.24.038171.691981.373605,1.333682.92,1.76.748144.551285,1.71633.707684,2.6.42.31-.09,0-.44-.2-.47-.31553-.030494-.629279-.077222-.94-.14-.275323-.086553-.532778-.222055-.76-.4-.309942-.252037-.519269-.606828-.59-1v0c.426173.105206.861544.168837,1.3.19.830957.12565,1.675234-.119227,2.31-.67.312963-.346454.312963-.873546,0-1.22-.376092-.411215-.913017-.637674-1.47-.62-1.112512-.097616-2.202608.354102-2.92,1.21-.065444-.032894-.128888-.069624-.19-.11-.817405-.611376-1.207227-1.640506-1-2.64-.005521-.023007-.005521-.046993,0-.07.828768.764687,1.949848,1.12986,3.07,1c.634521-.04284,1.118623-.584679,1.09-1.22-.066691-.659509-.500285-1.224729-1.12-1.46-.733467-.317003-1.55571-.363077-2.32-.13-.272353.103667-.533654.234318-.78.39-.106089-.250221-.163775-.518289-.17-.79-.01021-.372165.019966-.744341.09-1.11.009013-.10281.032582-.203818.07-.3.189501-.55429.537132-1.040973,1-1.4.104711.734002.492314,1.397952,1.08,1.85.827891.656494,2.023617.555755,2.73-.23.302573-.512827.242101-1.161894-.15-1.61-.406683-.493145-.960248-.843503-1.58-1-.35577-.094696-.721876-.145078-1.09-.15.3678-.689341.922299-1.261168,1.6-1.65.658759-.305921,1.397991-.393508,2.11-.25-.377813.392722-.676572.854441-.88,1.36-.223576.55885-.14426,1.19338.21,1.68.396985.512819,1.071262.724279,1.69.53.593486-.209749,1.048317-.694405,1.22-1.3.196298-.593498.103806-1.244642-.25-1.76-.169589-.234488-.375512-.440411-.61-.61.277012-.15656.572684-.277517.88-.36.949661-.186904,1.934502-.053247,2.8.38-.89.7-1.88,1.52-1.69,2.75s1.54,1.38,2.53.79c.547726-.355704.912937-.932737,1-1.58.084402-.6384-.100333-1.283159-.51-1.78v0c.79371-.229735,1.63629-.229735,2.43,0-.257954.19964-.495754.424042-.71.67-.469538.488817-.709444,1.15401-.66,1.83.119051.664436.659464,1.172344,1.33,1.25.631767.110731,1.269745-.159334,1.63-.69.638756-.935959.52561-2.193134-.27-3c.198009-.098661.401701-.18548.61-.26.808861-.264917,1.681139-.264917,2.49,0-.445956.478384-.723369,1.089394-.79,1.74-.056994.622149.158182,1.238501.59,1.69.363269.43396.99154.53226,1.47.23c1.3-1,.83-2.26.07-3.45-.034541-.051082-.074801-.098053-.12-.14.289216-.138604.595059-.239431.91-.3h.3c-.001374.491918.137371.974054.4,1.39.363458.551249.908228.958058,1.54,1.15.590607.253698,1.277644.026117,1.6-.53.58-1.11-.48-1.79-1.34-2.26-.363711-.17587-.74614-.310055-1.14-.4.289437-.434466.667768-.802573,1.11-1.08l.28-.15c.439023.412091.94229.749854,1.49,1c.753351.342672,1.603964.406468,2.4.18.56-.17,1.05-.58.82-1.2-.46-1.24-1.68-1.32-2.86-1.26-.505148.046366-1.004337.143524-1.49.29-.265233-.732085-.172732-1.546093.25-2.2.272423-.389135.610865-.727577,1-1c.16971.312879.370741.607723.6.88.801545.969576,2.094333,1.38358,3.31,1.06.583928-.119188,1.002504-.634037,1-1.23-.009453-.602655-.363081-1.146698-.91-1.4-1.085807-.523135-2.320268-.650472-3.49-.36-.179623-.834936-.110078-1.70424.2-2.5.249026-.528609.610842-.996239,1.06-1.37.045967-.039019.096303-.072576.15-.1c0,.12,0,.23,0,.36.42,1.44,1.1,2.43,2.73,2.41.605411-.038216,1.13107-.430499,1.34-1c.281723-.596074.166358-1.304175-.29-1.78-.769664-.694998-1.784434-1.054845-2.82-1-.004662-.059909-.004662-.120091,0-.18.341484-.894548,1.004852-1.629246,1.86-2.06.349572-.141844.722762-.216482,1.1-.22-.313945.857389-.186858,1.81428.34,2.56.67.81,2.19,1.54,2.71.12s-.72-2.56-1.93-3.18c.256486-.44963.595797-.846624,1-1.17.438685-.33846.967356-.54019,1.52-.58-.254455.658483-.333704,1.371722-.23,2.07.10168.649896.462493,1.230805,1,1.61.564969.305285,1.242168.320712,1.820454.041471s.98731-.81918,1.099546-1.451471c.028325-.588272-.18479-1.1626-.59-1.59-.509355-.561456-1.147734-.990475-1.86-1.25.401847-.496255.889597-.916262,1.44-1.24.727221-.499753,1.633859-.663604,2.49-.45-.397408.470716-.699665,1.014099-.89,1.6-.21877.705994-.030342,1.475089.49,2c.400306.478104,1.082134.607777,1.63.31.58913-.358671.934556-1.011143.9-1.7-.034064-.858871-.391224-1.673195-1-2.28.382719-.288995.8224-.493498,1.29-.6.736805-.111862,1.490206.003241,2.16.33-.15.16-.32.26-.47.44-.66.84-1.26,1.67-.75,2.75.319618.601088.960429.960567,1.64.92.693694-.013384,1.317173-.426439,1.6-1.06.5-1.19,0-2-.75-3c.023109-.004581.046891-.004581.07,0c.687647-.290256,1.437946-.400392,2.18-.32.791196.073952,1.563081.287236,2.28.63-.702504.159181-1.336301.537359-1.81,1.08-.441291.515431-.625163,1.20311-.5,1.87.120211.628138.670465,1.081782,1.31,1.08c1.406836.116203,2.647633-.91557,2.79-2.32.1-.43-.1-.7-.2-1.09.462313.053687.920162.140578,1.37.26.506367.158137.980461.405343,1.4.73-.676451.054273-1.314516.33629-1.81.8-.370986.398302-.563606.930605-.533413,1.474079s.28059,1.051164.693413,1.405921c.364522.315042.847345.457302,1.324451.390239s.902002-.336914,1.165549-.740239c.517036-.69265.710201-1.574649.53-2.42.207402.064321.408288.148024.6.25.822494.488548,1.347491,1.354794,1.4,2.31.012051,1.02811-.387636,2.018326-1.11,2.75-.28.32.11.76.4.49c1.142167-.922415,1.687234-2.3964,1.42-3.84Zm-56.6,25.79c.385689-.253771.829626-.405191,1.29-.44.390538-.072911.794197-.01675,1.15.16.087178.054902.124579.162951.09.26c0,.11,0,.12-.16.2-.195442.102549-.409882.163817-.63.18-.289648.020209-.580352.020209-.87,0h-.25c-.225827-.024548-.449691-.064643-.67-.12s-.13,0-.12,0c.032391-.094692.091419-.178026.17-.24Zm-.07-3.93c.429946.017497.814881.271553,1,.66.15.38-.16.54-.52.53-.798515-.019395-1.562705-.328625-2.15-.87.16773-.116423.353575-.204278.55-.26.366514-.08838.746141-.108718,1.12-.06Zm1.86-3.31c.082865.138771.106238.305105.064827.46134s-.144105.289153-.284827.36866c-.285762.146011-.624238.146011-.91,0-.705007-.330999-1.153739-1.041166-1.15-1.82h.1c.856707-.101916,1.698401.284182,2.18,1Zm3.16-2.34c.06911.447647-.058481.903329-.35,1.25-.108125.185144-.290318.315161-.500558.357209s-.428425-.007893-.599442-.137209c-.299227-.286617-.390702-.728082-.23-1.11.184398-.525379.497215-.996324.91-1.37.378219.223751.654409.586027.77,1.01Zm4.12,1.36c-.267664.352093-.700338.538067-1.14.49-.141238-.006487-.271646-.077564-.353641-.192747s-.106465-.261674-.066359-.397253c.108136-.818551.568356-1.549058,1.26-2c.104954-.074657.215251-.141504.33-.2.250085.255956.411339.585475.46.94.009442.495146-.165158.976187-.49,1.35Zm4.2-.16c-.175181.429006-.622148.68146-1.08.61-.220356-.054433-.407216-.199908-.51403-.400184s-.123525-.436497-.04597-.649816c.230669-.661091.67372-1.227213,1.26-1.61.586649.512577.743957,1.361213.38,2.05Zm4.68-.19c-.036118.353994-.316006.633882-.67.67-.37,0-.52-.33-.58-.64-.110672-.451793-.079242-.926731.09-1.36.11075-.252255.270509-.479996.47-.67.107408.110936.204477.231435.29.36.326689.480566.468743,1.062987.4,1.64Zm3.08-2.23c.44.26,1.39.9.56,1.37-.39.22-.89-.12-1.19-.42-.294963-.304934-.481234-.698562-.53-1.12-.004953-.093268-.004953-.186732,0-.28.407772.088576.799172.240412,1.16.45Zm2.92-2.9c.432761-.021819.860902.097499,1.22.34.2.14.41.44.13.64-.486874.260688-1.067525.27918-1.57.05-.504325-.195214-.971176-.476001-1.38-.83.523408-.130453,1.060585-.1976,1.6-.2Zm.78-4.16c.446151-.000498.890272.060064,1.32.18.41.12,1,.29,1.09.71.3.84-.65,1.11-1.28,1-.841172-.282307-1.533223-.891456-1.92-1.69.251648-.106399.518038-.173839.79-.2Zm1.67-4.85c.93.08,2,.4,2.05,1.46-.026067.354263-.238111.668107-.557055.824493s-.69691.131836-.992945-.064493c-.67437-.515684-1.030727-1.345919-.94-2.19.145225-.02527.292689-.035324.44-.03Zm4.19-2.56c.452858.344257.771202.835921.9,1.39.06.36,0,.84-.48.73-.836595-.217115-1.391733-1.009564-1.31-1.87.015651-.235219.062736-.467282.14-.69.270245.125913.522473.287339.75.48Zm4.89-1.18c.184681.388594.100103.851758-.21,1.15-.3.32-.73.62-1.16.35-.95-.63-.93-1.67-.71-2.7.036144-.130299.082969-.257396.14-.38.857148.21117,1.577781.78914,1.97,1.58Zm3.54-1.13c-.1.34-.4.72-.79.5-.481732-.296695-.716261-.870886-.58-1.42.151223-.544536.424851-1.047328.8-1.47.608436.634854.826426,1.548882.57,2.39Zm4.73-.7c-.124224.491781-.508219.875776-1,1-.401064.043325-.780227-.191592-.92-.57-.11583-.332886-.07542-.700251.11-1c.285829-.547457.68058-1.030688,1.16-1.42.139133.12091.26638.254853.38.4.35703.467793.458222,1.08244.27,1.64Zm5.26,0c-.217448.536807-.643193.962552-1.18,1.18-.32.13-.85.18-1-.2-.161897-.477225-.071602-1.003946.24-1.4.25887-.390676.632791-.691211,1.07-.86.261228-.098184.533094-.165312.81-.2.259972.472053.282207,1.039038.06,1.53Zm3.34,2.71c-.12.05-.26.17-.38.17-.105052.02625-.214948.02625-.32,0-.26-.15-.44-.26-.5-.56-.200854-.762506.180101-1.558279.9-1.88.315402-.133722.658621-.188637,1-.16s0-.26,0,.21.04,1.89-.7,2.23Z" fill="#31708e"/><path d="M188.5,161.41v0Z" fill="#31708e"/><path d="" fill="#31708e"/><polygon points="188.5,161.42 188.5,161.42 188.5,161.42 188.5,161.42" fill="#31708e"/><path d="" fill="#31708e"/><g opacity="0.5"><path d="M242.09,136.44c-.26-1.51-1.33-2.24-2.65-2.83-.12-.06-.27-.05-.36-.1s-.09-.12-.15-.18c-.939472-.874609-2.134661-1.424886-3.41-1.57-.29,0-.55,0-.84,0-1.32221-.854493-2.877147-1.277296-4.45-1.21-.619048.056367-1.219008.243854-1.76.55-.076437-.052523-.156656-.099317-.24-.14-1.424071-.673295-3.101446-.52011-4.38.4-.224754-.116263-.463315-.203624-.71-.26-.679603-.076173-1.367444.020125-2,.28-.629634.238374-1.217062.575976-1.74,1-.314605.29993-.593153.635531-.83,1-.149626-.014971-.300374-.014971-.45,0-1.254983.222475-2.366227.944062-3.08,2-.08.1-.12.21-.2.31-1.032099-.012979-2.035184.341468-2.83,1-.696678.639982-1.181586,1.477232-1.39,2.4v0c-1.224572.631253-2.099017,1.781258-2.38,3.13-.092095.668608-.047873,1.34894.13,2-.991707.606444-1.708868,1.574611-2,2.7-.092208.52922-.018872,1.074002.21,1.56-.410526.221377-.796073.486231-1.15.79-.288406.291182-.525122.629349-.7,1-.478713.023086-.952531.107096-1.41.25-.20397.077096-.401294.170741-.59.28-1.230277-.504559-2.609723-.504559-3.84,0-.19.06-.33.16-.5.23-1.175696-.47537-2.484756-.503828-3.68-.08-.994344-.579457-2.143305-.837886-3.29-.74-.654568.105932-1.282646.336794-1.85.68-.728098-.255159-1.508503-.323918-2.27-.2-1.189876.338878-2.203419,1.123211-2.83,2.19-.091217.187242-.168104.381131-.23.58-.42312.15784-.808174.403184-1.13.72-.518562.619782-.832905,1.384683-.9,2.19-.019714.232917-.019714.467083,0,.7.027134.529402.174167,1.045724.43,1.51-.557973,1.288641-.26369,2.787893.74,3.77.246848.225522.5226.417203.82.57-.005369.07991-.005369.16009,0,.24.038171.691981.373605,1.333682.92,1.76.748144.551285,1.71633.707684,2.6.42.31-.09,0-.44-.2-.47-.31553-.030494-.629279-.077222-.94-.14-.275323-.086553-.532778-.222055-.76-.4-.309942-.252037-.519269-.606828-.59-1v0c.426173.105206.861544.168837,1.3.19.830957.12565,1.675234-.119227,2.31-.67.312963-.346454.312963-.873546,0-1.22-.376092-.411215-.913017-.637674-1.47-.62-1.112512-.097616-2.202608.354102-2.92,1.21-.065444-.032894-.128888-.069624-.19-.11-.817405-.611376-1.207227-1.640506-1-2.64-.005521-.023007-.005521-.046993,0-.07.828768.764687,1.949848,1.12986,3.07,1c.634521-.04284,1.118623-.584679,1.09-1.22-.066691-.659509-.500285-1.224729-1.12-1.46-.733467-.317003-1.55571-.363077-2.32-.13-.272353.103667-.533654.234318-.78.39-.106089-.250221-.163775-.518289-.17-.79-.01021-.372165.019966-.744341.09-1.11.009013-.10281.032582-.203818.07-.3.189501-.55429.537132-1.040973,1-1.4.104711.734002.492314,1.397952,1.08,1.85.827891.656494,2.023617.555755,2.73-.23.302573-.512827.242101-1.161894-.15-1.61-.406683-.493145-.960248-.843503-1.58-1-.35577-.094696-.721876-.145078-1.09-.15.3678-.689341.922299-1.261168,1.6-1.65.658759-.305921,1.397991-.393508,2.11-.25-.377813.392722-.676572.854441-.88,1.36-.223576.55885-.14426,1.19338.21,1.68.396985.512819,1.071262.724279,1.69.53.593486-.209749,1.048317-.694405,1.22-1.3.196298-.593498.103806-1.244642-.25-1.76-.169589-.234488-.375512-.440411-.61-.61.277012-.15656.572684-.277517.88-.36.949661-.186904,1.934502-.053247,2.8.38-.89.7-1.88,1.52-1.69,2.75s1.54,1.38,2.53.79c.547726-.355704.912937-.932737,1-1.58.084402-.6384-.100333-1.283159-.51-1.78v0c.79371-.229735,1.63629-.229735,2.43,0-.257954.19964-.495754.424042-.71.67-.469538.488817-.709444,1.15401-.66,1.83.119051.664436.659464,1.172344,1.33,1.25.631767.110731,1.269745-.159334,1.63-.69.638756-.935959.52561-2.193134-.27-3c.198009-.098661.401701-.18548.61-.26.808861-.264917,1.681139-.264917,2.49,0-.445956.478384-.723369,1.089394-.79,1.74-.056994.622149.158182,1.238501.59,1.69.363269.43396.99154.53226,1.47.23c1.3-1,.83-2.26.07-3.45-.034541-.051082-.074801-.098053-.12-.14.289216-.138604.595059-.239431.91-.3h.3c-.001374.491918.137371.974054.4,1.39.363458.551249.908228.958058,1.54,1.15.590607.253698,1.277644.026117,1.6-.53.58-1.11-.48-1.79-1.34-2.26-.363711-.17587-.74614-.310055-1.14-.4.289437-.434466.667768-.802573,1.11-1.08l.28-.15c.439023.412091.94229.749854,1.49,1c.753351.342672,1.603964.406468,2.4.18.56-.17,1.05-.58.82-1.2-.46-1.24-1.68-1.32-2.86-1.26-.505148.046366-1.004337.143524-1.49.29-.265233-.732085-.172732-1.546093.25-2.2.272423-.389135.610865-.727577,1-1c.16971.312879.370741.607723.6.88.801545.969576,2.094333,1.38358,3.31,1.06.583928-.119188,1.002504-.634037,1-1.23-.009453-.602655-.363081-1.146698-.91-1.4-1.085807-.523135-2.320268-.650472-3.49-.36-.179623-.834936-.110078-1.70424.2-2.5.249026-.528609.610842-.996239,1.06-1.37.045967-.039019.096303-.072576.15-.1c0,.12,0,.23,0,.36.42,1.44,1.1,2.43,2.73,2.41.605411-.038216,1.13107-.430499,1.34-1c.281723-.596074.166358-1.304175-.29-1.78-.769664-.694998-1.784434-1.054845-2.82-1-.004662-.059909-.004662-.120091,0-.18.341484-.894548,1.004852-1.629246,1.86-2.06.349572-.141844.722762-.216482,1.1-.22-.313945.857389-.186858,1.81428.34,2.56.67.81,2.19,1.54,2.71.12s-.72-2.56-1.93-3.18c.256486-.44963.595797-.846624,1-1.17.438685-.33846.967356-.54019,1.52-.58-.254455.658483-.333704,1.371722-.23,2.07.10168.649896.462493,1.230805,1,1.61.564969.305285,1.242168.320712,1.820454.041471s.98731-.81918,1.099546-1.451471c.028325-.588272-.18479-1.1626-.59-1.59-.509355-.561456-1.147734-.990475-1.86-1.25.401847-.496255.889597-.916262,1.44-1.24.727221-.499753,1.633859-.663604,2.49-.45-.397408.470716-.699665,1.014099-.89,1.6-.21877.705994-.030342,1.475089.49,2c.400306.478104,1.082134.607777,1.63.31.58913-.358671.934556-1.011143.9-1.7-.034064-.858871-.391224-1.673195-1-2.28.382719-.288995.8224-.493498,1.29-.6.736805-.111862,1.490206.003241,2.16.33-.15.16-.32.26-.47.44-.66.84-1.26,1.67-.75,2.75.319618.601088.960429.960567,1.64.92.693694-.013384,1.317173-.426439,1.6-1.06.5-1.19,0-2-.75-3c.023109-.004581.046891-.004581.07,0c.687647-.290256,1.437946-.400392,2.18-.32.791196.073952,1.563081.287236,2.28.63-.702504.159181-1.336301.537359-1.81,1.08-.441291.515431-.625163,1.20311-.5,1.87.120211.628138.670465,1.081782,1.31,1.08c1.406836.116203,2.647633-.91557,2.79-2.32.1-.43-.1-.7-.2-1.09.462313.053687.920162.140578,1.37.26.506367.158137.980461.405343,1.4.73-.676451.054273-1.314516.33629-1.81.8-.370986.398302-.563606.930605-.533413,1.474079s.28059,1.051164.693413,1.405921c.364522.315042.847345.457302,1.324451.390239s.902002-.336914,1.165549-.740239c.517036-.69265.710201-1.574649.53-2.42.207402.064321.408288.148024.6.25.822494.488548,1.347491,1.354794,1.4,2.31.012051,1.02811-.387636,2.018326-1.11,2.75-.28.32.11.76.4.49c1.142167-.922415,1.687234-2.3964,1.42-3.84Zm-56.6,25.79c.385689-.253771.829626-.405191,1.29-.44.390538-.072911.794197-.01675,1.15.16.087178.054902.124579.162951.09.26c0,.11,0,.12-.16.2-.195442.102549-.409882.163817-.63.18-.289648.020209-.580352.020209-.87,0h-.25c-.225827-.024548-.449691-.064643-.67-.12s-.13,0-.12,0c.032391-.094692.091419-.178026.17-.24Zm-.07-3.93c.429946.017497.814881.271553,1,.66.15.38-.16.54-.52.53-.798515-.019395-1.562705-.328625-2.15-.87.16773-.116423.353575-.204278.55-.26.366514-.08838.746141-.108718,1.12-.06Zm1.86-3.31c.082865.138771.106238.305105.064827.46134s-.144105.289153-.284827.36866c-.285762.146011-.624238.146011-.91,0-.705007-.330999-1.153739-1.041166-1.15-1.82h.1c.856707-.101916,1.698401.284182,2.18,1Zm3.16-2.34c.06911.447647-.058481.903329-.35,1.25-.108125.185144-.290318.315161-.500558.357209s-.428425-.007893-.599442-.137209c-.299227-.286617-.390702-.728082-.23-1.11.184398-.525379.497215-.996324.91-1.37.378219.223751.654409.586027.77,1.01Zm4.12,1.36c-.267664.352093-.700338.538067-1.14.49-.141238-.006487-.271646-.077564-.353641-.192747s-.106465-.261674-.066359-.397253c.108136-.818551.568356-1.549058,1.26-2c.104954-.074657.215251-.141504.33-.2.250085.255956.411339.585475.46.94.009442.495146-.165158.976187-.49,1.35Zm4.2-.16c-.175181.429006-.622148.68146-1.08.61-.220356-.054433-.407216-.199908-.51403-.400184s-.123525-.436497-.04597-.649816c.230669-.661091.67372-1.227213,1.26-1.61.586649.512577.743957,1.361213.38,2.05Zm4.68-.19c-.036118.353994-.316006.633882-.67.67-.37,0-.52-.33-.58-.64-.110672-.451793-.079242-.926731.09-1.36.11075-.252255.270509-.479996.47-.67.107408.110936.204477.231435.29.36.326689.480566.468743,1.062987.4,1.64Zm3.08-2.23c.44.26,1.39.9.56,1.37-.39.22-.89-.12-1.19-.42-.294963-.304934-.481234-.698562-.53-1.12-.004953-.093268-.004953-.186732,0-.28.407772.088576.799172.240412,1.16.45Zm2.92-2.9c.432761-.021819.860902.097499,1.22.34.2.14.41.44.13.64-.486874.260688-1.067525.27918-1.57.05-.504325-.195214-.971176-.476001-1.38-.83.523408-.130453,1.060585-.1976,1.6-.2Zm.78-4.16c.446151-.000498.890272.060064,1.32.18.41.12,1,.29,1.09.71.3.84-.65,1.11-1.28,1-.841172-.282307-1.533223-.891456-1.92-1.69.251648-.106399.518038-.173839.79-.2Zm1.67-4.85c.93.08,2,.4,2.05,1.46-.026067.354263-.238111.668107-.557055.824493s-.69691.131836-.992945-.064493c-.67437-.515684-1.030727-1.345919-.94-2.19.145225-.02527.292689-.035324.44-.03Zm4.19-2.56c.452858.344257.771202.835921.9,1.39.06.36,0,.84-.48.73-.836595-.217115-1.391733-1.009564-1.31-1.87.015651-.235219.062736-.467282.14-.69.270245.125913.522473.287339.75.48Zm4.89-1.18c.184681.388594.100103.851758-.21,1.15-.3.32-.73.62-1.16.35-.95-.63-.93-1.67-.71-2.7.036144-.130299.082969-.257396.14-.38.857148.21117,1.577781.78914,1.97,1.58Zm3.54-1.13c-.1.34-.4.72-.79.5-.481732-.296695-.716261-.870886-.58-1.42.151223-.544536.424851-1.047328.8-1.47.608436.634854.826426,1.548882.57,2.39Zm4.73-.7c-.124224.491781-.508219.875776-1,1-.401064.043325-.780227-.191592-.92-.57-.11583-.332886-.07542-.700251.11-1c.285829-.547457.68058-1.030688,1.16-1.42.139133.12091.26638.254853.38.4.35703.467793.458222,1.08244.27,1.64Zm5.26,0c-.217448.536807-.643193.962552-1.18,1.18-.32.13-.85.18-1-.2-.161897-.477225-.071602-1.003946.24-1.4.25887-.390676.632791-.691211,1.07-.86.261228-.098184.533094-.165312.81-.2.259972.472053.282207,1.039038.06,1.53Zm3.34,2.71c-.12.05-.26.17-.38.17-.105052.02625-.214948.02625-.32,0-.26-.15-.44-.26-.5-.56-.200854-.762506.180101-1.558279.9-1.88.315402-.133722.658621-.188637,1-.16s0-.26,0,.21.04,1.89-.7,2.23Z"/><path d="M188.5,161.41v0Z"/><path d=""/><polygon points="188.5,161.42 188.5,161.42 188.5,161.42 188.5,161.42"/><path d=""/></g></g><g><polygon points="206.96,156.87 245.6,134.57 259.51,142.6 220.86,164.91 206.96,156.87" fill="#455a64"/><path d="M218.65,161.91l-7.41-4.28c-.251108-.081802-.421056-.315904-.421056-.58s.169948-.498198.421056-.58l7.46-4.3c.628136-.320544,1.371864-.320544,2,0l7.37,4.3c.251108.081802.421056.315904.421056.58s-.169948.498198-.421056.58l-7.41,4.28c-.63084.323957-1.37916.323957-2.01,0Z" fill="#263238"/><path d="M218.7,153.62l-7.21,4.16l7.16,4.13c.628136.320544,1.371864.320544,2,0l7.17-4.13-7.12-4.16c-.628136-.320544-1.371864-.320544-2,0Z" fill="#37474f"/><path d="M245,146.69l-7.41-4.28c-.251108-.081802-.421056-.315904-.421056-.58s.169948-.498198.421056-.58l7.46-4.31c.62891-.317308,1.37109-.317308,2,0l7.36,4.3c.251108.081802.421056.315904.421056.58s-.169948.498198-.421056.58L247,146.69c-.62891.317308-1.37109.317308-2,0Z" fill="#263238"/><path d="M247,146.69l7.16-4.14-7.11-4.15c-.62891-.317308-1.37109-.317308-2,0l-7.2,4.16l7.15,4.13c.62891.317308,1.37109.317308,2,0Z" fill="#37474f"/><path d="M208.5,161.34v2.56c.00145.624693.332089,1.20236.87,1.52l36.87,21.3c.545629.310326,1.214371.310326,1.76,0l35.34-20.41c.546289-.310586.882664-.891599.88-1.52v-2.55L248,183.15c-.541999.310559-1.208001.310559-1.75,0Z" fill="#263238"/><polygon points="285.76,150.63 285.76,157.77 247.12,180.08 220.84,164.91 220.84,164.91 245.57,150.63 259.49,135.46 285.76,150.63" fill="#455a64"/><path d="M271.86,165.8l-24.74,14.28L207,156.87v2.56c.003535.626734.338244,1.204868.88,1.52l38.41,22.2c.541999.310559,1.208001.310559,1.75,0l36.89-21.3c.543247-.313641.8785-.892715.88-1.52v-9.7Z" fill="#37474f"/><path d="M247,180l-40-23.12v2.56c.003535.626734.338244,1.204868.88,1.52l38.41,22.2c.218547.122481.460488.197449.71.22Z" fill="#263238"/><path d="M246.25,183.15L208.5,161.34v2.56c.00145.624693.332089,1.20236.87,1.52l36.87,21.3c.220809.125603.466699.200736.72.22v-3.57c-.249512-.022551-.491453-.097519-.71-.22Z"/><polygon points="285.76,150.63 259.51,136.54 245.57,150.63 259.49,135.46 285.76,150.63" opacity="0.1" fill="#fff"/><polygon points="271.86,165.8 251.36,153.97 272.38,165.23 271.86,165.8" opacity="0.1" fill="#fff"/><polygon points="245.57,150.63 220.86,164.91 220.37,164.62 245.57,150.63" fill="#263238"/><polygon points="275.21,155.42 256.38,144.55 260.93,139.57 260.93,139.57 279.71,150.41 275.21,155.42" fill="#31708e"/><polygon points="279.29,150.88 279.71,150.41 260.93,139.57 256.38,144.55 256.94,144.88 261.07,140.36 279.29,150.88" opacity="0.15"/><polygon points="261.07,140.36 260.93,139.57 256.38,144.55 256.94,144.88 261.07,140.36" opacity="0.15"/><path d="M258.52,155l-6.47-3.76l1.1-1.2l6.45,3.75c.100864.055216.170324.154188.187956.267817s-.018568.228997-.097956.312183l-.46.51c-.181991.196526-.473531.245801-.71.12Z" fill="#fff"/><path d="M253.6,149.85c-.011799-.067194-.057035-.123739-.12-.15l-1.11-.64c-.151066-.076603-.334593-.043976-.45.08l-1,1.05c-.054482.051308-.080595.125915-.07.2c0,.06.09.36.1.43.019386.063485.062319.117151.12.15l1.11.64c.151966.070095.331505.038177.45-.08l1-1.05c.057691-.053276.080837-.134288.06-.21c0-.06-.07-.35-.09-.42Z" fill="#31708e"/><path d="M252.49,151.63c.070212-.010193.134253-.04577.18-.1l1-1.05c.057691-.053276.080837-.134288.06-.21c0-.06-.08-.35-.1-.42-.011799-.067194-.057035-.123739-.12-.15l-1.11-.64c-.080492-.030777-.169508-.030777-.25,0Z" opacity="0.15"/><path d="M252.12,149c-.077629.011709-.14854.050711-.2.11l-1,1.05c-.054482.051308-.080595.125915-.07.2c0,.06.09.36.1.43.019386.063485.062319.117151.12.15l1.11.64c.086592.035028.183408.035028.27,0Z" opacity="0.3"/><path d="M252.58,151.11l1-1.05c.053166-.050309.07783-.123766.065797-.195966s-.059188-.133688-.125797-.164034l-1.11-.64c-.151066-.076603-.334593-.043976-.45.08l-1,1.05c-.05862.041194-.093509.108353-.093509.18s.034889.138806.093509.18l1.11.63c.163443.10811.381729.078149.51-.07Z" fill="#31708e"/><path d="M261.08,152.23l-6.47-3.75l1.1-1.2l6.45,3.75c.104268.052152.176825.151566.194702.26677s-.021142.231933-.104702.31323l-.46.51c-.184484.193152-.475718.238273-.71.11Z" fill="#fff"/><path d="M256.17,147.05c-.021225-.065126-.063422-.121389-.12-.16l-1.11-.63c-.148917-.07909-.332143-.050588-.45.07l-1,1.06c-.055976.050107-.07915.127356-.06.2c0,.06.08.36.1.43.014906.065745.059131.121026.12.15l1.11.63c.148917.07909.332143.050588.45-.07l1-1c.054741-.055293.080617-.132921.07-.21-.03-.11-.1-.4-.11-.47Z" fill="#31708e"/><path d="M255.06,148.83c.067699-.017054.129755-.05153.18-.1l1-1c.054741-.055293.080617-.132921.07-.21c0-.06-.09-.35-.1-.42-.021225-.065126-.063422-.121389-.12-.16l-1.11-.63c-.080809-.029006-.169191-.029006-.25,0Z" opacity="0.15"/><path d="M254.69,146.23c-.075808.010568-.146061.045695-.2.1l-1,1.06c-.055976.050107-.07915.127356-.06.2c0,.06.08.36.1.43.014906.065745.059131.121026.12.15l1.11.63c.086592.035028.183408.035028.27,0Z" opacity="0.3"/><path d="M255.14,148.31l1-1.06c.048809-.052264.070532-.124258.058775-.194796s-.055654-.131595-.118775-.165204l-1.11-.63c-.148917-.07909-.332143-.050588-.45.07l-1,1.06c-.053544.048216-.078629.120517-.066455.191535s.059909.130835.126455.158465l1.11.64c.149939.072668.32922.04478.45-.07Z" fill="#31708e"/><path d="M269.29,161.25l-6.47-3.76l1.1-1.19l6.45,3.74c.100864.055216.170324.154188.187956.267817s-.018568.228997-.097956.312183l-.46.52c-.184484.193152-.475718.238273-.71.11Z" fill="#fff"/><path d="M264.38,156.06c-.021798-.062181-.064121-.115084-.12-.15l-1.11-.63c-.151984-.080708-.338902-.052264-.46.07l-1,1.05c-.057691.053276-.080837.134288-.06.21c0,.06.08.36.09.42.021225.065126.063422.121389.12.16l1.11.63c.151984.080708.338902.052264.46-.07l1-1.05c.055787-.05443.078611-.134314.06-.21-.01-.06-.08-.36-.09-.43Z" fill="#31708e"/><path d="M263.27,157.85c.067699-.017054.129755-.05153.18-.1l1-1.05c.055787-.05443.078611-.134314.06-.21c0-.06-.08-.36-.09-.43-.021798-.062181-.064121-.115084-.12-.15l-1.11-.63c-.08158-.024172-.16842-.024172-.25,0Z" opacity="0.15"/><path d="M262.9,155.24c-.078924.016265-.15169.05438-.21.11l-1,1.05c-.057691.053276-.080837.134288-.06.21c0,.06.08.36.09.42.021225.065126.063422.121389.12.16l1.11.63c.090959.029776.189041.029776.28,0Z" opacity="0.3"/><path d="M263.35,157.32l1-1c.05386-.04886.080095-.121179.070091-.193207s-.054955-.13446-.120091-.166793l-1.11-.63c-.151984-.080708-.338902-.052264-.46.07l-1,1.05c-.053166.050309-.07783.123766-.065797.195966s.059188.133688.125797.164034l1.11.63c.159809.067376.344959.018003.45-.12Z" fill="#31708e"/><path d="M271.86,158.45l-6.47-3.76l1.1-1.2l6.45,3.75c.100864.055216.170324.154188.187956.267817s-.018568.228997-.097956.312183l-.46.52c-.184484.193152-.475718.238273-.71.11Z" fill="#fff"/><path d="M266.94,153.26c-.014906-.065745-.059131-.121026-.12-.15l-1.11-.63c-.148917-.07909-.332143-.050588-.45.07l-1,1c-.047067.055354-.068825.127878-.06.2c0,.06.08.36.1.43.011799.067194.057035.123739.12.15l1.11.64c.133553.110943.323426.123063.47.03l1-1.06c.047067-.055354.068825-.127878.06-.2-.06-.11-.06-.41-.12-.48Z" fill="#31708e"/><path d="M265.83,155c.05556.015841.11444.015841.17,0l1-1.06c.047067-.055354.068825-.127878.06-.2c0-.06-.08-.36-.1-.43-.014906-.065745-.059131-.121026-.12-.15l-1.11-.63c-.079639-.035092-.170361-.035092-.25,0Z" opacity="0.15"/><path d="M265.46,152.44c-.078231.009895-.14975.049231-.2.11l-1,1c-.047067.055354-.068825.127878-.06.2c0,.06.08.36.1.43.011799.067194.057035.123739.12.15l1.11.64c.086592.035028.183408.035028.27,0Z" opacity="0.3"/><path d="M265.91,154.52l1-1.05c.053166-.050309.07783-.123766.065797-.195966s-.059188-.133688-.125797-.164034l-1.11-.63c-.148917-.07909-.332143-.050588-.45.07l-1,1c-.048809.052264-.070532.124258-.058775.194796s.055654.131595.118775.165204l1.11.63c.138212.092536.320542.084433.45-.02Z" fill="#31708e"/><path d="M246,153.58l-2.29,1.33c-.23391.084371-.389813.306339-.389813.555s.155903.470629.389813.555l1,.58c.606033.309817,1.323967.309817,1.93,0l2.3-1.32c.23391-.084371.389813-.306339.389813-.555s-.155903-.470629-.389813-.555l-1-.59c-.608735-.313236-1.331265-.313236-1.94,0Z" fill="#31708e"/><path d="M249.2,155.11c-.066943.064487-.140712.121489-.22.17l-2.3,1.32c-.602534.309699-1.317466.309699-1.92,0l-1-.59c-.078353-.046065-.152034-.099652-.22-.16-.100342-.095192-.164051-.222611-.18-.36v.74c.019956.246113.173662.461302.4.56l1,.58c.602534.309699,1.317466.309699,1.92,0l2.3-1.32c.21967-.104816.367868-.317613.39-.56v-.76c-.006731.14357-.067451.279296-.17.38Z" fill="#31708e"/><path d="M252.58,157.35l-2.3,1.32c-.23391.084371-.389813.306339-.389813.555s.155903.470629.389813.555l1,.59c.608292.30029,1.321708.30029,1.93,0l2.3-1.33c.236476-.079164.39588-.300625.39588-.55s-.159404-.470836-.39588-.55l-1-.59c-.605229-.313137-1.324771-.313137-1.93,0Z" fill="#31708e"/><path d="M255.74,158.87c-.06506.066634-.139109.123854-.22.17l-2.3,1.33c-.604826.300078-1.315174.300078-1.92,0l-1-.59c-.080891-.046146-.15494-.103366-.22-.17-.100342-.095192-.164051-.222611-.18-.36v.75c.024088.244582.176451.457891.4.56l1,.58c.603708.304808,1.316292.304808,1.92,0l2.3-1.33c.222018-.098705.374502-.308371.4-.55v-.77c-.003829.146358-.06918.284321-.18.38Z" fill="#31708e"/><path d="M257.67,160.3l-2.29,1.32c-.54.31-.54.8,0,1.11l1,.59c.608292.30029,1.321708.30029,1.93,0l2.3-1.33c.236476-.079164.39588-.300625.39588-.55s-.159404-.470836-.39588-.55l-1-.59c-.608735-.313236-1.331265-.313236-1.94,0Z" fill="#31708e"/><path d="M260.84,161.82c-.068163.070137-.145537.130691-.23.18l-2.29,1.32c-.608292.30029-1.321708.30029-1.93,0l-1-.59c-.080891-.046146-.15494-.103366-.22-.17-.100342-.095192-.164051-.222611-.18-.36v.74c.019956.246113.173662.461302.4.56l1,.58c.60719.304975,1.32281.304975,1.93,0l2.29-1.33c.224796-.095241.378654-.306796.4-.55v-.77c-.002057.147541-.063313.288067-.17.39Z" fill="#31708e"/><path d="M262.71,163.24l-2.3,1.32c-.23391.084371-.389813.306339-.389813.555s.155903.470629.389813.555l1,.59c.602534.309699,1.317466.309699,1.92,0l2.3-1.32c.23391-.084371.389813-.306339.389813-.555s-.155903-.470629-.389813-.555l-1-.59c-.602534-.309699-1.317466-.309699-1.92,0Z" fill="#31708e"/><path d="M265.87,164.77c-.062849.069073-.137306.126608-.22.17l-2.3,1.32c-.602534.309699-1.317466.309699-1.92,0l-1-.59c-.078353-.046065-.152034-.099652-.22-.16-.10104-.098765-.164662-.229542-.18-.37v.75c.025498.241629.177982.451295.4.55l1,.59c.602534.309699,1.317466.309699,1.92,0l2.3-1.32c.224921-.100439.377937-.314662.4-.56v-.77c-.003491.149297-.068654.290482-.18.39Z" fill="#31708e"/><path d="M240.6,156.72L238.3,158c-.23391.084371-.389813.306339-.389813.555s.155903.470629.389813.555l1,.59c.604826.300078,1.315174.300078,1.92,0l2.3-1.32c.54-.31.54-.81,0-1.11l-1-.59c-.608969-.297222-1.323938-.282327-1.92.04Z" fill="#31708e"/><path d="M243.76,158.24c-.059615.075045-.134636.136426-.22.18l-2.3,1.32c-.604826.300078-1.315174.300078-1.92,0l-1-.59c-.082388-.048487-.159474-.105464-.23-.17-.098094-.095667-.158445-.223468-.17-.36v.75c.021346.243204.175204.454759.4.55l1,.58c.601299.31476,1.318701.31476,1.92,0l2.3-1.33c.224796-.095241.378654-.306796.4-.55v-.77c-.000996.149865-.066603.292013-.18.39Z" fill="#31708e"/><path d="M247.14,160.48l-2.29,1.33c-.23391.084371-.389813.306339-.389813.555s.155903.470629.389813.555l1,.58c.606033.309817,1.323967.309817,1.93,0l2.3-1.32c.23391-.084371.389813-.306339.389813-.555s-.155903-.470629-.389813-.555l-1-.59c-.608735-.313236-1.331265-.313236-1.94,0Z" fill="#31708e"/><path d="M250.31,162c-.066943.064487-.140712.121489-.22.17l-2.3,1.32c-.602534.309699-1.317466.309699-1.92,0l-1-.59c-.078353-.046065-.152034-.099652-.22-.16-.100342-.095192-.164051-.222611-.18-.36v.74c.021346.243204.175204.454759.4.55l1,.59c.602534.309699,1.317466.309699,1.92,0l2.3-1.32c.21967-.104816.367868-.317613.39-.56v-.76c-.006731.14357-.067451.279296-.17.38Z" fill="#31708e"/><path d="M252.24,163.43l-2.3,1.33c-.23391.084371-.389813.306339-.389813.555s.155903.470629.389813.555l1,.58c.602534.309699,1.317466.309699,1.92,0l2.3-1.32c.53-.31.54-.8,0-1.11l-1-.59c-.604826-.300078-1.315174-.300078-1.92,0Z" fill="#31708e"/><path d="M255.4,165c-.062849.069073-.137306.126608-.22.17l-2.3,1.32c-.602534.309699-1.317466.309699-1.92,0l-1-.59c-.081429-.046139-.158423-.099699-.23-.16-.098094-.095667-.158445-.223468-.17-.36v.74c.019956.246113.173662.461302.4.56l1,.58c.602534.309699,1.317466.309699,1.92,0l2.3-1.32c.224921-.100439.377937-.314662.4-.56v-.76c-.006195.145784-.071124.282855-.18.38Z" fill="#31708e"/><path d="M257.27,166.38L255,167.7c-.23391.084371-.389813.306339-.389813.555s.155903.470629.389813.555l1,.59c.608292.30029,1.321708.30029,1.93,0l2.3-1.33c.236476-.079164.39588-.300625.39588-.55s-.159404-.470836-.39588-.55l-1-.59c-.614115-.320142-1.345885-.320142-1.96,0Z" fill="#31708e"/><path d="M260.44,167.9c-.066943.064487-.140712.121489-.22.17l-2.3,1.33c-.604826.300078-1.315174.300078-1.92,0l-1-.59c-.080891-.046146-.15494-.103366-.22-.17-.100342-.095192-.164051-.222611-.18-.36v.72c.019956.246113.173662.461302.4.56l1,.58c.603708.304808,1.316292.304808,1.92,0l2.3-1.33c.222018-.098705.374502-.308371.4-.55v-.77c-.000373.155752-.065594.304312-.18.41Z" fill="#31708e"/><path d="M235.17,159.85l-2.3,1.33c-.23391.084371-.389813.306339-.389813.555s.155903.470629.389813.555l1,.58c.602534.309699,1.317466.309699,1.92,0l2.3-1.32c.23391-.084371.389813-.306339.389813-.555s-.155903-.470629-.389813-.555l-1-.59c-.604826-.300078-1.315174-.300078-1.92,0Z" fill="#31708e"/><path d="M238.33,161.38c-.062849.069073-.137306.126608-.22.17l-2.3,1.32c-.602534.309699-1.317466.309699-1.92,0l-1-.59-.22-.16c-.096578-.097933-.1596-.223978-.18-.36v.74c.024088.244582.176451.457891.4.56l1,.58c.603708.304808,1.316292.304808,1.92,0l2.3-1.33c.224921-.100439.377937-.314662.4-.56v-.75c-.006195.145784-.071124.282855-.18.38Z" fill="#31708e"/><path d="M241.71,163.62l-2.3,1.32c-.23391.084371-.389813.306339-.389813.555s.155903.470629.389813.555l1,.59c.604826.300078,1.315174.300078,1.92,0l2.3-1.32c.54-.31.54-.81,0-1.11l-1-.59c-.602534-.309699-1.317466-.309699-1.92,0Z" fill="#31708e"/><path d="M244.87,165.14c-.062295.07235-.136747.133265-.22.18l-2.3,1.32c-.604826.300078-1.315174.300078-1.92,0l-1-.59c-.082388-.048487-.159474-.105464-.23-.17-.098094-.095667-.158445-.223468-.17-.36v.75c.021346.243204.175204.454759.4.55l1,.58c.603708.304808,1.316292.304808,1.92,0l2.3-1.33c.224796-.095241.378654-.306796.4-.55v-.77c-.000996.149865-.066603.292013-.18.39Z" fill="#31708e"/><path d="M246.81,166.57l-2.3,1.32c-.23391.084371-.389813.306339-.389813.555s.155903.470629.389813.555l1,.59c.604826.300078,1.315174.300078,1.92,0l2.3-1.32c.23391-.084371.389813-.306339.389813-.555s-.155903-.470629-.389813-.555l-1-.59c-.602534-.309699-1.317466-.309699-1.92,0Z" fill="#31708e"/><path d="M250,168.09c-.059615.075045-.134636.136426-.22.18l-2.3,1.32c-.604826.300078-1.315174.300078-1.92,0l-1-.59c-.080891-.046146-.15494-.103366-.22-.17-.100342-.095192-.164051-.222611-.18-.36v.75c.025498.241629.177982.451295.4.55l1,.58c.601299.31476,1.318701.31476,1.92,0l2.3-1.33c.224796-.095241.378654-.306796.4-.55v-.77c-.000996.149865-.066603.292013-.18.39Z" fill="#31708e"/><path d="M251.84,169.51l-2.29,1.33c-.54.3-.54.8,0,1.11l1,.58c.602534.309699,1.317466.309699,1.92,0l2.31-1.32c.23391-.084371.389813-.306339.389813-.555s-.155903-.470629-.389813-.555l-1-.59c-.607916-.316597-1.332084-.316597-1.94,0Z" fill="#31708e"/><path d="M255,171c-.068635.066797-.146005.123984-.23.17l-2.3,1.32c-.602534.309699-1.317466.309699-1.92,0l-1-.59c-.078353-.046065-.152034-.099652-.22-.16-.10415-.09232-.168634-.221288-.18-.36v.74c.01914.244024.173744.456606.4.55l1,.59c.602534.309699,1.317466.309699,1.92,0l2.3-1.32c.224921-.100439.377937-.314662.4-.56v-.77c-.00421.147068-.065124.286812-.17.39Z" fill="#31708e"/><path d="M229.74,163l-2.3,1.32c-.23391.084371-.389813.306339-.389813.555s.155903.470629.389813.555l1,.59c.606033.309817,1.323967.309817,1.93,0l2.3-1.32c.23391-.084371.389813-.306339.389813-.555s-.155903-.470629-.389813-.555l-1-.59c-.605229-.313137-1.324771-.313137-1.93,0Z" fill="#31708e"/><path d="M232.9,164.52c-.06506.066634-.139109.123854-.22.17l-2.3,1.32c-.604826.300078-1.315174.300078-1.92,0l-1-.59c-.080891-.046146-.15494-.103366-.22-.17-.101781-.094119-.165774-.222104-.18-.36v.75c.025498.241629.177982.451295.4.55l1,.59c.602534.309699,1.317466.309699,1.92,0l2.3-1.33c.222018-.098705.374502-.308371.4-.55v-.77c-.003491.149297-.068654.290482-.18.39Z" fill="#31708e"/><path d="M236.28,166.75l-2.3,1.33c-.23391.084371-.389813.306339-.389813.555s.155903.470629.389813.555l1,.58c.602534.309699,1.317466.309699,1.92,0l2.3-1.32c.23391-.084371.389813-.306339.389813-.555s-.155903-.470629-.389813-.555l-1-.59c-.604826-.300078-1.315174-.300078-1.92,0Z" fill="#31708e"/><path d="M239.44,168.28c-.062849.069073-.137306.126608-.22.17l-2.3,1.32c-.602534.309699-1.317466.309699-1.92,0l-1-.59-.22-.16c-.096578-.097933-.1596-.223978-.18-.36v.74c.024088.244582.176451.457891.4.56l1,.58c.602534.309699,1.317466.309699,1.92,0l2.3-1.32c.224921-.100439.377937-.314662.4-.56v-.76c-.006195.145784-.071124.282855-.18.38Z" fill="#31708e"/><path d="M241.37,169.7l-2.29,1.3c-.23391.084371-.389813.306339-.389813.555s.155903.470629.389813.555l1,.58c.606033.309817,1.323967.309817,1.93,0l2.3-1.32c.23391-.084371.389813-.306339.389813-.555s-.155903-.470629-.389813-.555l-1-.59c-.615721-.294183-1.33367-.283081-1.94.03Z" fill="#31708e"/><path d="M244.54,171.23c-.06506.066634-.139109.123854-.22.17l-2.3,1.32c-.602534.309699-1.317466.309699-1.92,0l-1-.58c-.078792-.049227-.152489-.106174-.22-.17-.100342-.095192-.164051-.222611-.18-.36v.74c.019956.246113.173662.461302.4.56l1,.58c.603708.304808,1.316292.304808,1.92,0l2.3-1.33c.220934-.105255.372089-.316871.4-.56v-.76c-.003491.149297-.068654.290482-.18.39Z" fill="#31708e"/><path d="M246.41,172.65l-2.3,1.32c-.23391.084371-.389813.306339-.389813.555s.155903.470629.389813.555l1,.59c.604826.300078,1.315174.300078,1.92,0l2.3-1.32c.53-.31.54-.81,0-1.11l-1-.59c-.602534-.309699-1.317466-.309699-1.92,0Z" fill="#31708e"/><path d="M249.57,174.17c-.062295.07235-.136747.133265-.22.18l-2.3,1.32c-.604826.300078-1.315174.300078-1.92,0l-1-.59c-.083995-.046016-.161365-.103203-.23-.17-.098094-.095667-.158445-.223468-.17-.36v.75c.021346.243204.175204.454759.4.55l1,.58c.603708.304808,1.316292.304808,1.92,0l2.3-1.33c.224796-.095241.378654-.306796.4-.55v-.77c-.000996.149865-.066603.292013-.18.39Z" fill="#31708e"/><g opacity="0.35"><path d="M249.2,155.11c-.066943.064487-.140712.121489-.22.17l-2.3,1.32c-.602534.309699-1.317466.309699-1.92,0l-1-.59c-.078353-.046065-.152034-.099652-.22-.16-.100342-.095192-.164051-.222611-.18-.36v.74c.019956.246113.173662.461302.4.56l1,.58c.602534.309699,1.317466.309699,1.92,0l2.3-1.32c.21967-.104816.367868-.317613.39-.56v-.76c-.006731.14357-.067451.279296-.17.38Z"/><path d="M255.74,158.87c-.06506.066634-.139109.123854-.22.17l-2.3,1.33c-.604826.300078-1.315174.300078-1.92,0l-1-.59c-.080891-.046146-.15494-.103366-.22-.17-.100342-.095192-.164051-.222611-.18-.36v.75c.024088.244582.176451.457891.4.56l1,.58c.603708.304808,1.316292.304808,1.92,0l2.3-1.33c.222018-.098705.374502-.308371.4-.55v-.77c-.003829.146358-.06918.284321-.18.38Z"/><path d="M260.84,161.82c-.068163.070137-.145537.130691-.23.18l-2.29,1.32c-.608292.30029-1.321708.30029-1.93,0l-1-.59c-.080891-.046146-.15494-.103366-.22-.17-.100342-.095192-.164051-.222611-.18-.36v.74c.019956.246113.173662.461302.4.56l1,.58c.60719.304975,1.32281.304975,1.93,0l2.29-1.33c.224796-.095241.378654-.306796.4-.55v-.77c-.002057.147541-.063313.288067-.17.39Z"/><path d="M265.87,164.77c-.062849.069073-.137306.126608-.22.17l-2.3,1.32c-.602534.309699-1.317466.309699-1.92,0l-1-.59c-.078353-.046065-.152034-.099652-.22-.16-.10104-.098765-.164662-.229542-.18-.37v.75c.025498.241629.177982.451295.4.55l1,.59c.602534.309699,1.317466.309699,1.92,0l2.3-1.32c.224921-.100439.377937-.314662.4-.56v-.77c-.003491.149297-.068654.290482-.18.39Z"/><path d="M243.76,158.24c-.059615.075045-.134636.136426-.22.18l-2.3,1.32c-.604826.300078-1.315174.300078-1.92,0l-1-.59c-.082388-.048487-.159474-.105464-.23-.17-.098094-.095667-.158445-.223468-.17-.36v.75c.021346.243204.175204.454759.4.55l1,.58c.601299.31476,1.318701.31476,1.92,0l2.3-1.33c.224796-.095241.378654-.306796.4-.55v-.77c-.000996.149865-.066603.292013-.18.39Z"/><path d="M250.31,162c-.066943.064487-.140712.121489-.22.17l-2.3,1.32c-.602534.309699-1.317466.309699-1.92,0l-1-.59c-.078353-.046065-.152034-.099652-.22-.16-.100342-.095192-.164051-.222611-.18-.36v.74c.021346.243204.175204.454759.4.55l1,.59c.602534.309699,1.317466.309699,1.92,0l2.3-1.32c.21967-.104816.367868-.317613.39-.56v-.76c-.006731.14357-.067451.279296-.17.38Z"/><path d="M255.4,165c-.062849.069073-.137306.126608-.22.17l-2.3,1.32c-.602534.309699-1.317466.309699-1.92,0l-1-.59c-.081429-.046139-.158423-.099699-.23-.16-.098094-.095667-.158445-.223468-.17-.36v.74c.019956.246113.173662.461302.4.56l1,.58c.602534.309699,1.317466.309699,1.92,0l2.3-1.32c.224921-.100439.377937-.314662.4-.56v-.76c-.006195.145784-.071124.282855-.18.38Z"/><path d="M260.44,167.9c-.066943.064487-.140712.121489-.22.17l-2.3,1.33c-.604826.300078-1.315174.300078-1.92,0l-1-.59c-.080891-.046146-.15494-.103366-.22-.17-.100342-.095192-.164051-.222611-.18-.36v.72c.019956.246113.173662.461302.4.56l1,.58c.603708.304808,1.316292.304808,1.92,0l2.3-1.33c.222018-.098705.374502-.308371.4-.55v-.77c-.000373.155752-.065594.304312-.18.41Z"/><path d="M238.33,161.38c-.062849.069073-.137306.126608-.22.17l-2.3,1.32c-.602534.309699-1.317466.309699-1.92,0l-1-.59-.22-.16c-.096578-.097933-.1596-.223978-.18-.36v.74c.024088.244582.176451.457891.4.56l1,.58c.603708.304808,1.316292.304808,1.92,0l2.3-1.33c.224921-.100439.377937-.314662.4-.56v-.75c-.006195.145784-.071124.282855-.18.38Z"/><path d="M244.87,165.14c-.062295.07235-.136747.133265-.22.18l-2.3,1.32c-.604826.300078-1.315174.300078-1.92,0l-1-.59c-.082388-.048487-.159474-.105464-.23-.17-.098094-.095667-.158445-.223468-.17-.36v.75c.021346.243204.175204.454759.4.55l1,.58c.603708.304808,1.316292.304808,1.92,0l2.3-1.33c.224796-.095241.378654-.306796.4-.55v-.77c-.000996.149865-.066603.292013-.18.39Z"/><path d="M250,168.09c-.059615.075045-.134636.136426-.22.18l-2.3,1.32c-.604826.300078-1.315174.300078-1.92,0l-1-.59c-.080891-.046146-.15494-.103366-.22-.17-.100342-.095192-.164051-.222611-.18-.36v.75c.025498.241629.177982.451295.4.55l1,.58c.601299.31476,1.318701.31476,1.92,0l2.3-1.33c.224796-.095241.378654-.306796.4-.55v-.77c-.000996.149865-.066603.292013-.18.39Z"/><path d="M255,171c-.068635.066797-.146005.123984-.23.17l-2.3,1.32c-.602534.309699-1.317466.309699-1.92,0l-1-.59c-.078353-.046065-.152034-.099652-.22-.16-.10415-.09232-.168634-.221288-.18-.36v.74c.01914.244024.173744.456606.4.55l1,.59c.602534.309699,1.317466.309699,1.92,0l2.3-1.32c.224921-.100439.377937-.314662.4-.56v-.77c-.00421.147068-.065124.286812-.17.39Z"/><path d="M232.9,164.52c-.06506.066634-.139109.123854-.22.17l-2.3,1.32c-.604826.300078-1.315174.300078-1.92,0l-1-.59c-.080891-.046146-.15494-.103366-.22-.17-.101781-.094119-.165774-.222104-.18-.36v.75c.025498.241629.177982.451295.4.55l1,.59c.602534.309699,1.317466.309699,1.92,0l2.3-1.33c.222018-.098705.374502-.308371.4-.55v-.77c-.003491.149297-.068654.290482-.18.39Z"/><path d="M239.44,168.28c-.062849.069073-.137306.126608-.22.17l-2.3,1.32c-.602534.309699-1.317466.309699-1.92,0l-1-.59-.22-.16c-.096578-.097933-.1596-.223978-.18-.36v.74c.024088.244582.176451.457891.4.56l1,.58c.602534.309699,1.317466.309699,1.92,0l2.3-1.32c.224921-.100439.377937-.314662.4-.56v-.76c-.006195.145784-.071124.282855-.18.38Z"/><path d="M244.54,171.23c-.06506.066634-.139109.123854-.22.17l-2.3,1.32c-.602534.309699-1.317466.309699-1.92,0l-1-.58c-.078792-.049227-.152489-.106174-.22-.17-.100342-.095192-.164051-.222611-.18-.36v.74c.019956.246113.173662.461302.4.56l1,.58c.603708.304808,1.316292.304808,1.92,0l2.3-1.33c.220934-.105255.372089-.316871.4-.56v-.76c-.003491.149297-.068654.290482-.18.39Z"/><path d="M249.57,174.17c-.062295.07235-.136747.133265-.22.18l-2.3,1.32c-.604826.300078-1.315174.300078-1.92,0l-1-.59c-.083995-.046016-.161365-.103203-.23-.17-.098094-.095667-.158445-.223468-.17-.36v.75c.021346.243204.175204.454759.4.55l1,.58c.603708.304808,1.316292.304808,1.92,0l2.3-1.33c.224796-.095241.378654-.306796.4-.55v-.77c-.000996.149865-.066603.292013-.18.39Z"/></g><path d="M259.24,144.47c.007018-.045271.027994-.087223.06-.12l1.84-2.23c.029302-.039997.07181-.068336.12-.08.041622-.017223.088378-.017223.13,0l1.15.65c0,0,.06.05,0,.09s0,.07-.07.13l-.08.09c-.031956.041948-.072977.076132-.12.1-.034034.01965-.075966.01965-.11,0l-.76-.43-.51.62.68.39c0,0,.05,0,0,.08-.008412.049849-.033014.095537-.07.13l-.07.09c-.033716.040224-.074356.074091-.12.1-.0324.025015-.0776.025015-.11,0l-.68-.38-.56.68.76.43c.03229.012957.052503.045298.05.08-.01579.049152-.043237.093754-.08.13l-.07.09c-.034212.04252-.074671.079608-.12.11-.035131.015008-.074869.015008-.11,0l-1.16-.66c-.005403-.030337-.00193-.061589.01-.09Z" fill="#fff"/><path d="M261.07,145.41l1.87-2.26c.026146-.043153.07011-.072463.12-.08.042243-.01375.087757-.01375.13,0l.64.37c.53.3.61.67.24,1.13-.20956.268159-.541115.411331-.88.38v0c.060181.179003.042025.375091-.05.54l-.33.82c0,0,0,0,0,0v0c0,.05-.14,0-.28,0l-.12-.07c-.12-.07-.17-.13-.13-.2l.35-.8c.016836-.075742.016836-.154258,0-.23-.029592-.069337-.082714-.126001-.15-.16l-.15-.08-.73.88c-.06.07-.15.06-.29,0l-.11-.06c-.15-.04-.2-.11-.13-.18Zm1.89-.86c.081811.041027.178189.041027.26,0c.114678-.040983.215282-.113835.29-.21.079414-.080164.125813-.187238.13-.3-.001664-.08356-.052719-.158178-.13-.19l-.27-.15-.56.68Z" fill="#fff"/><path d="M263.1,146.57l1.9-2.27c.026776-.038131.065474-.066275.11-.08.041381-.018397.088619-.018397.13,0l.64.36c.53.3.61.68.24,1.13-.205375.268776-.532704.41551-.87.39v0c.081385.174301.081385.375699,0,.55l-.33.82c0,0,0,0,0,0v0c0,.06-.14,0-.28,0l-.11-.06c-.13-.07-.17-.14-.14-.2l.35-.81c.016836-.075742.016836-.154258,0-.23-.033279-.064313-.085687-.116721-.15-.15l-.15-.09-.73.88c-.05.07-.15.07-.29,0l-.11-.06c-.23-.04-.31-.11-.21-.18Zm1.89-.86c.083015.03558.176985.03558.26,0c.115378-.0447.215867-.120933.29-.22.080841-.076088.130703-.179374.14-.29-.008139-.084274-.06192-.157262-.14-.19l-.27-.16-.56.69Z" fill="#fff"/><path d="M266,146.52c.7-.84,1.39-1.07,2.07-.68s.67,1,0,1.84-1.4,1.08-2.08.7-.69-1.01.01-1.86Zm.82,1.47c.266503-.153995.498072-.361725.68-.61.201356-.209751.351886-.462916.44-.74.038316-.164094-.045735-.332196-.2-.4-.165017-.090734-.364983-.090734-.53,0-.263415.154404-.491632.362184-.67.61-.207027.205378-.358436.460022-.44.74-.043785.167309.041194.341516.2.41.165485.088893.364515.088893.53,0Z" fill="#fff"/><path d="M267.5,149.07l1.88-2.27c.030389-.038842.072458-.066888.12-.08.042508-.01196.087492-.01196.13,0l.63.36c.53.31.61.68.24,1.13-.205375.268776-.532704.41551-.87.39v0c.055441.179525.037462.373707-.05.54l-.34.82c0,.06-.14.05-.28,0l-.12-.07c-.12-.07-.17-.14-.14-.2l.3-.69c.027582-.074186.027582-.155814,0-.23q0-.08-.15-.15l-.14-.08-.73.88c-.06.07-.16.06-.3,0l-.11-.06c-.08-.15-.12-.22-.07-.29Zm1.9-.86c.081811.041027.178189.041027.26,0c.109831-.044772.206267-.117098.28-.21.080058-.080729.129551-.186786.14-.3-.00986-.080705-.058349-.151574-.13-.19l-.27-.15-.57.68Z" fill="#fff"/><path d="M270.2,150.73c-.075724-.062945-.137099-.141368-.18-.23-.026765-.053506-.026765-.116494,0-.17.059884-.047836.127532-.085043.2-.11.1,0,.16-.05.2,0s0,0,.06.09c.030925.059572.07147.113632.12.16.052078.062807.116821.11392.19.15.120747.054764.259253.054764.38,0c.147204-.035208.277834-.119941.37-.24.23-.29.19-.52-.13-.7l-.34-.2c-.06,0-.08-.06-.08-.09s0-.07.05-.12l.94-1c.031053-.042805.077794-.071569.13-.08.042344-.013095.087656-.013095.13,0l1,.59c0,0,.06,0,.05.08-.004854.050998-.030095.097876-.07.13l-.06.08c-.030845.036484-.06813.066991-.11.09-.031745.014551-.068255.014551-.1,0l-.73-.41-.53.56.1.06c.257498.085286.447696.30462.495668.571599s-.053969.538806-.265668.708401c-.177614.251468-.454107.41518-.76.45-.271592.030113-.54557-.029601-.78-.17-.101257-.054812-.19531-.121994-.28-.2Z" fill="#fff"/><path d="M272.13,151.4c.099769-.397015.29943-.761913.58-1.06.267247-.347797.608926-.631392,1-.83.268122-.145823.591878-.145823.86,0c.245679.120984.380621.390866.33.66-.096895.401074-.29682.769903-.58,1.07-.270061.345075-.611084.628124-1,.83-.271679.145782-.598321.145782-.87,0-.248638-.122591-.380921-.399559-.32-.67Zm.84.31c.122528-.052535.23438-.127103.33-.22.339449-.341557.647366-.713065.92-1.11.065035-.100164.109246-.212392.13-.33.015064-.070976-.022833-.142558-.09-.17-.069015-.03559-.150985-.03559-.22,0-.119192.053201-.227645.127762-.32.22-.174274.16976-.337918.350102-.49.54-.157401.182496-.301125.376355-.43.58-.069868.098645-.117622.211208-.14.33-.00385.06634.031307.12884.09.16.076754.046829.173246.046829.25,0Z" fill="#fff"/><path d="M273.74,152.69q-.18-.21-.09-.33c.054783-.049771.11956-.087273.19-.11q.14-.06.18,0c.029954.024208.053911.055009.07.09.035874.068127.079497.131883.13.19.051944.056192.112751.103486.18.14.114654.066864.249047.09162.38.07.152168-.023205.288872-.105946.38-.23.095177-.098499.14265-.233616.13-.37-.049262-.133542-.150169-.241656-.28-.3l-.15-.08c-.03229-.012957-.052503-.045298-.05-.08.006248-.053415.031017-.102952.07-.14v0c.034801-.043159.079358-.077434.13-.1.034034-.01965.075966-.01965.11,0l.11.06c.118752.075513.262661.100697.4.07.123864-.022335.236592-.085745.32-.18.071676-.070748.1083-.169631.1-.27-.020156-.106312-.091149-.195988-.19-.24-.065887-.036414-.136585-.063347-.21-.08h-.18-.1c0,0-.05-.07,0-.15.004848-.067157.0254-.132238.06-.19.06-.07.18-.09.35-.05.183257.037261.359006.104857.52.2.197618.09079.346874.261888.41.47.033843.206023-.028833.416173-.17.57-.097931.118122-.225681.207892-.37.26-.144555.035195-.295445.035195-.44,0v0c.099139.120596.149134.274153.14.43-.013361.17923-.087437.348546-.21.48-.115754.148519-.267084.265456-.44.34-.157139.069331-.328548.100185-.5.09-.179319-.009847-.353903-.061195-.51-.15-.175935-.112865-.3343-.251012-.47-.41Z" fill="#fff"/></g><g><path d="M219.94,182.35l-3.7,2.14-5.13,3-17.8-10.28l5.39-3.11l4.67-2.7c.736947,1.308608,1.793063,2.409445,3.07,3.2l9,5.22c.553506.328828,1.17037.536721,1.81.61Z" fill="#455a64"/><path d="M219.94,182.35l-3.7,2.14-5.13,3-17.8-10.28l5.39-3.11l4.67-2.7c.736947,1.308608,1.793063,2.409445,3.07,3.2l9,5.22c.553506.328828,1.17037.536721,1.81.61Z" opacity="0.1"/><path d="M229.21,182.6v3.06c-.016691.971096-.525074,1.867356-1.35,2.38v0l-.78.46-8.57,5c1.088861-.480315,1.815523-1.531655,1.88-2.72v-3.08c.348215.005394.692163-.077154,1-.24l7.41-4.28c.2305-.106167.386809-.327287.41-.58Z" fill="#263238"/><path d="M203.37,171.36l-4.67,2.7-4.16,2.4c-.249827-.457915-.431731-.949728-.54-1.46l-.64-2.9v0c.347663.011602.69234-.067674,1-.23l7.41-4.28c.212376-.102401.364238-.298709.41-.53v0l.63,2.86c.117465.504118.306019.988971.56,1.44Z" fill="#263238"/><path d="M219.38,187.46l-7.86-4.53c-.192784-.104133-.33657-.280272-.4-.49v-.09c0,0-.32,1-.72,2.13s-2.07,1.36-3.74.4l-9-5.22c-1.738857-1.064721-3.037645-2.718369-3.66-4.66l-.64-2.91v0c-.347096.005969-.69039-.072989-1-.23l-7.85-4.54c-.234241-.098214-.395583-.317179-.42-.57v3.9c.158656,1.419076.674757,2.774701,1.5,3.94c1.825915,2.562975,4.16133,4.721362,6.86,6.34s16.5,9.55,19.63,11.33s5.53,1.78,6.47,1.24c1.088861-.480315,1.815523-1.531655,1.88-2.72v-3.08c-.365362.017523-.728532-.065488-1.05-.24Z" fill="#37474f"/><path d="M194.32,171.84l7.41-4.28c.251108-.081802.421056-.315904.421056-.58s-.169948-.498198-.421056-.58l-7.85-4.54c-.62891-.317308-1.37109-.317308-2,0l-7.41,4.28c-.251108.081802-.421056.315904-.421056.58s.169948.498198.421056.58l7.85,4.54c.62891.317308,1.37109.317308,2,0Z" fill="#455a64"/><path d="M189.6,168.87c-1.93-1.11-1.93-2.92,0-4c2.199259-1.118644,4.800741-1.118644,7,0c1.93,1.12,1.93,2.92,0,4-2.20042,1.113789-4.79958,1.113789-7,0Z" fill="#37474f"/><ellipse rx="0.52" ry="0.3" transform="translate(190.92 165.61)" fill="#263238"/><path d="M190.15,166.29c.29,0,.48.18.43.34s-.31.28-.59.25-.47-.18-.43-.34.31-.27.59-.25Z" fill="#263238"/><path d="M190.15,167.4c.236674-.083492.499934-.033892.69.13.13.15,0,.33-.22.4-.239932.083135-.505916.033738-.7-.13-.13-.15-.03-.33.23-.4Z" fill="#263238"/><path d="M191.27,168.29c.194999-.153349.452567-.201876.69-.13.26.08.36.26.23.4-.193911.163568-.458094.216404-.7.14-.25-.08-.35-.26-.22-.41Z" fill="#263238"/><path d="M193.08,168.64c0-.17.15-.32.44-.34s.54.08.59.24-.15.32-.43.35-.55-.09-.6-.25Z" fill="#263238"/><path d="M194.91,168.3c-.21-.12-.21-.31,0-.42.228743-.119167.501257-.119167.73,0c.2.11.2.3,0,.42-.228743.119167-.501257.119167-.73,0Z" fill="#263238"/><path d="M196,167.41c-.29,0-.48-.18-.44-.34s.31-.28.6-.25.47.18.43.34-.27.27-.59.25Z" fill="#263238"/><path d="M196,166.3c-.239932.083135-.505916.033738-.7-.13-.13-.14,0-.32.23-.4.239932-.083135.505916-.033738.7.13.17.15.07.33-.23.4Z" fill="#263238"/><path d="M194.92,165.41c-.198086.155083-.45944.20362-.7.13-.25-.08-.35-.26-.22-.4.190066-.163892.453326-.213492.69-.13.31.07.36.25.23.4Z" fill="#263238"/><path d="M193.1,165.06c.05.17-.14.32-.43.35s-.55-.09-.59-.25.15-.32.43-.35.55.09.59.25Z" fill="#263238"/><path d="M221.39,187.46l7.41-4.28c.251108-.081802.421056-.315904.421056-.58s-.169948-.498198-.421056-.58l-7.86-4.53c-.62891-.317308-1.37109-.317308-2,0l-7.41,4.28c-.243558.086263-.406346.316617-.406346.575s.162788.488737.406346.575l7.86,4.54c.62891.317308,1.37109.317308,2,0Z" fill="#455a64"/><path d="M216.67,184.49c-1.93-1.11-1.93-2.91,0-4c2.198082-1.123543,4.801918-1.123543,7,0c1.92,1.11,1.92,2.92,0,4-2.199259,1.118644-4.800741,1.118644-7,0Z" fill="#37474f"/><path d="M218.35,181c.089277.033926.148299.119494.148299.215s-.059022.181074-.148299.215c-.230945.10981-.499055.10981-.73,0-.21-.12-.21-.31,0-.43.230945-.10981.499055-.10981.73,0Z" fill="#263238"/><path d="M217.22,181.92c.28,0,.47.18.43.34s-.31.27-.59.25-.48-.18-.43-.35.31-.27.59-.24Z" fill="#263238"/><path d="M217.21,183c.240217-.079137.504214-.030109.7.13.13.15,0,.33-.23.4-.236674.083492-.499934.033892-.69-.13-.13-.12.01-.3.22-.4Z" fill="#263238"/><path d="M218.33,183.92c.194084-.163738.460068-.213135.7-.13.25.07.36.25.23.4-.196584.158381-.459658.207237-.7.13-.26-.08-.36-.26-.23-.4Z" fill="#263238"/><path d="M220.15,184.26c0-.16.15-.32.43-.34s.55.08.59.25-.14.31-.43.34-.54-.09-.59-.25Z" fill="#263238"/><path d="M222,183.92c-.2-.11-.2-.3,0-.42.228743-.119167.501257-.119167.73,0c.21.12.21.31,0,.42-.228743.119167-.501257.119167-.73,0Z" fill="#263238"/><path d="M223.1,183c-.28,0-.47-.18-.43-.34s.31-.28.59-.25.48.18.43.34-.31.31-.59.25Z" fill="#263238"/><path d="M223.11,181.93c-.24056.07362-.501914.025083-.7-.13-.13-.15,0-.33.23-.41.237433-.071876.495001-.023349.69.13.13.15.03.33-.22.41Z" fill="#263238"/><path d="M222,181c-.194084.163738-.460068.213135-.7.13-.25-.07-.36-.25-.23-.4.194084-.163738.460068-.213135.7-.13.23.1.35.28.23.4Z" fill="#263238"/><path d="M220.17,180.69c0,.16-.15.31-.43.34s-.55-.09-.59-.25.14-.32.43-.34.54.08.59.25Z" fill="#263238"/></g></g><g transform="matrix(2.234143 0 0 2.234143-175.388387-76.806449)"><g><g><path d="M200.05,112.43l-4.54-10.37l3.66-10.56v-6.5L188,91.5v6.5l4.81,10.15c.079053.127045.19385.227927.33.29v0Z" fill="#31708e"/><path d="M200.05,112.43l-4.54-10.37l3.66-10.56v-6.5L188,91.5v6.5l4.81,10.15c.079053.127045.19385.227927.33.29v0Z" opacity="0.2"/><path d="M229.11,52.75c-.126858-2.362426-1.375646-4.521788-3.36-5.81L223,45.36c-2.108529-1.070704-4.601471-1.070704-6.71,0L161.63,76.85c-1.984686,1.292554-3.233067,3.454928-3.36,5.82v25.63c.126858,2.362426,1.375646,4.521788,3.36,5.81l2.73,1.58c2.108529,1.070704,4.601471,1.070704,6.71,0L195,102l4.8,10.13c.140983.241922.409436.380166.688255.354429s.517429-.210787.611745-.474429l5.08-16.47L225.75,84.2c1.984354-1.288212,3.233142-3.447574,3.36-5.81Z" fill="#31708e"/><path d="M158.27,108.3c.126858,2.362426,1.375646,4.521788,3.36,5.81l2.73,1.58c1.914132.962947,4.148731,1.061211,6.14.27-1.58.6-2.78-.29-2.78-2.21v-25.63c.043905-1.170843.388274-2.310704,1-3.31l-9.45-5.45c-.611726.999296-.956095,2.139157-1,3.31Z" opacity="0.2"/><path d="M229,51.8c-.39-1.42-1.69-1.88-3.24-1L171.07,82.3c-.995322.612592-1.809825,1.478864-2.36,2.51l-9.45-5.45c.556816-1.029593,1.374023-1.895074,2.37-2.51l54.67-31.5c2.114678-1.059664,4.605322-1.059664,6.72,0L225.76,47c1.68888,1.091729,2.859098,2.825386,3.24,4.8Z" opacity="0.5" fill="#fff"/></g><path d="M171.73,106.28v-15.09c.035627-.556528.379046-1.046575.89-1.27l.64-.37c.59-.34.88-.25.88.25v5.82l2.62-1.51v-5.82c.031073-.558116.375998-1.050314.89-1.27l.62-.36c.59-.34.89-.26.89.24v15.1c-.035627.556528-.379046,1.046575-.89,1.27l-.62.36c-.6.34-.89.26-.89-.24v-6.17l-2.62,1.52v6.15c-.030652.552897-.371457,1.040868-.88,1.26l-.64.37c-.62.34-.89.26-.89-.24Z" fill="#fff"/><path d="M181.06,101.38c-.117206-.191561-.166521-.416999-.14-.64v-14.62c-.008538-.273435.039111-.545715.14-.8.088267-.199352.239265-.364396.43-.47L186,82.24q.23-.13.33.09c.094815.265807.132303.548671.11.83v.73c.018388.337109-.018774.674948-.11,1-.045772.195784-.163589.367154-.33.48l-2.7,1.56v3.37l2.39-1.38c.051267-.032306.113589-.042036.172263-.026895s.108506.053815.137737.106895c.090004.270399.127344.555543.11.84v.73c.012976.336939-.024094.673939-.11,1-.046734.195458-.168983.364449-.34.47l-2.39,1.38v3.82L186,95.65q.24-.14.33.09c.085439.271311.119356.556214.1.84v.73c.01714.336465-.016572.673591-.1,1-.038635.198857-.158165.372718-.33.48l-4.53,2.61c-.17.07-.32.07-.41-.02Z" fill="#fff"/><path d="M188.06,97.34c-.117206-.191561-.166521-.416999-.14-.64v-14.86c.037842-.555748.380535-1.044759.89-1.27l.61-.35c.59-.34.89-.26.89.24v12.71l2.28-1.32c.17-.09.28-.06.35.08.096228.268933.133736.555358.11.84v.73c.018388.337109-.018774.674948-.11,1-.045627.201354-.17224.374994-.35.48l-4.1,2.37c-.2.08-.34.08-.43-.01Z" fill="#fff"/><path d="M194.31,93.73c-.117206-.191561-.166521-.416999-.14-.64v-14.86c.037019-.553628.380597-1.04004.89-1.26l.61-.36c.59-.34.89-.26.89.24v12.71l2.28-1.31c.17-.1.28-.07.35.08.094815.265807.132303.548671.11.83v.73c.018388.337109-.018774.674948-.11,1-.048397.202683-.173969.378484-.35.49l-4.1,2.37c-.2.07-.34.08-.43-.02Z" fill="#fff"/><path d="M199.82,82.52q0-8.44,4-10.76c1.31-.76,2.3-.65,3,.33s1,2.91,1,5.8c.091142,2.374526-.247637,4.745975-1,7-.526243,1.569976-1.588302,2.90463-3,3.77-2.66,1.53-4-.52-4-6.14Zm4.92,2c.267569-.612883.436329-1.264294.5-1.93.131154-1.108291.187947-2.22412.17-3.34.023103-1.042815-.03373-2.085868-.17-3.12-.021998-.491092-.1968-.963057-.5-1.35-.264609-.195043-.625391-.195043-.89,0-.392964.236181-.706374.584415-.9,1-.275313.614929-.450849,1.269811-.52,1.94-.125676,1.102053-.182453,2.210874-.17,3.32-.017591,1.046044.039219,2.092015.17,3.13.022187.494517.204712.968381.52,1.35.266667.2.633333.2.9,0c.38303-.227486.692109-.560875.89-.96Z" fill="#fff"/><path d="M210.09,79.45c-.12,0-.17-.17-.17-.43-.001151-.672767.072637-1.343569.22-2c.160275-.722741.377623-1.43163.65-2.12l.33-.81c.29-.68.5-1.21.63-1.6.111176-.32244.175171-.659254.19-1c0-.88-.33-1.13-1-.74-.21038.12193-.396762.281202-.55.47-.16.2-.32.41-.48.64-.084599.141152-.18527.272025-.3.39q-.2.11-.42-.12c-.163489-.181709-.292285-.391849-.38-.62-.09807-.200128-.155832-.417586-.17-.64.019137-.446438.161003-.878956.41-1.25.280899-.453006.616786-.869506,1-1.24.355645-.356347.755583-.665543,1.19-.92.94-.54,1.69-.63,2.24-.25s.84,1.2.84,2.46c.004779.578274-.055602,1.155245-.18,1.72-.103371.48127-.247216.952948-.43,1.41-.17.41-.4.92-.7,1.53s-.61,1.33-.81,1.86c-.198711.568766-.326346,1.159915-.38,1.76-.027527.228066-.113657.445114-.25.63-.152754.193127-.343307.353056-.56.47l-.35.2c-.26.18-.45.24-.57.2Zm-.37,4.9v-2.17c.040576-.568471.395744-1.066479.92-1.29l.48-.28c.62-.35.92-.28.92.23v2.16c-.039693.566401-.395792,1.061844-.92,1.28l-.48.28c-.64.37-.92.29-.92-.21Z" fill="#fff"/><path d="M216.08,76q-.18,0-.18-.42c.001628-.67317.078778-1.344033.23-2c.157457-.723481.374875-1.432597.65-2.12l.33-.81c.29-.69.5-1.22.62-1.61.118554-.320823.186041-.658258.2-1c0-.88-.34-1.13-1-.75-.207799.125539-.393599.284314-.55.47-.172669.207019-.332949.424064-.48.65-.083204.139067-.18404.266793-.3.38-.13.08-.28,0-.42-.12-.163732-.183422-.295559-.392992-.39-.62-.092088-.201731-.146322-.418667-.16-.64.017835-.443575.159896-.873224.41-1.24.280724-.45616.616588-.87599,1-1.25.355645-.356347.755583-.665543,1.19-.92.94-.54,1.68-.62,2.24-.25s.84,1.2.84,2.46c.004769.581578-.055608,1.161861-.18,1.73-.104716.477664-.248534.945909-.43,1.4-.17.41-.4.92-.7,1.53s-.61,1.33-.81,1.86c-.197642.569066-.325248,1.160083-.38,1.76-.025688.22853-.112001.446038-.25.63-.149901.195876-.341095.356342-.56.47l-.36.21c-.25.2-.44.2-.56.2Zm-.38,4.9v-2.18c.044182-.56477.398769-1.058109.92-1.28l.49-.29c.62-.35.92-.27.92.23v2.17c-.039693.566401-.395792,1.061844-.92,1.28l-.49.29c-.62.35-.92.28-.92-.23Z" fill="#fff"/><path d="M222.07,72.54c-.12,0-.18-.18-.18-.43.003805-.67249.077535-1.342762.22-2c.165718-.722436.38636-1.431163.66-2.12l.33-.81c.29-.68.5-1.22.62-1.61.117127-.320829.181298-.658571.19-1q0-1.32-1-.75c-.209747.122822-.39598.281966-.55.47-.17349.206373-.333807.423469-.48.65-.083204.139067-.18404.266793-.3.38q-.21.12-.42-.12c-.165993-.18171-.29808-.391695-.39-.62-.095611-.196938-.150054-.411306-.16-.63.017576-.446721.159577-.879653.41-1.25.280049-.456634.615977-.876544,1-1.25.358312-.353308.757853-.662197,1.19-.92.632911-.517356,1.511851-.611528,2.24-.24.55.38.83,1.19.83,2.45.003387.580997-.053585,1.160775-.17,1.73-.104716.477664-.248534.945909-.43,1.4-.17.41-.4.93-.7,1.54-.307942.602777-.578454,1.223954-.81,1.86-.198699.565332-.326344,1.153173-.38,1.75-.027615.231106-.113655.451367-.25.64-.156203.189744-.346041.349072-.56.47l-.36.2c-.154607.129679-.348309.203638-.55.21Zm-.38,4.9v-2.17c.040576-.568471.395744-1.066479.92-1.29l.49-.28c.62-.36.92-.28.92.22v2.17c-.040576.568471-.395744,1.066479-.92,1.29l-.49.28c-.61.34-.92.28-.92-.22Z" fill="#fff"/></g></g></svg>
