<svg id="eJR9XfTgW1i1" xmlns="http://www.w3.org/2000/svg" xmlns:xlink="http://www.w3.org/1999/xlink" viewBox="0 0 500 500" shape-rendering="geometricPrecision" text-rendering="geometricPrecision"><g><path d="M55.29,80h-13.69c-.276142,0-.5-.223858-.5-.5v-13.66c0-.276142.223858-.5.5-.5h13.69c.276142,0,.5.223858.5.5v13.7c-.020899.260411-.238753.460837-.5.46ZM42.1,79h12.69v-12.66h-12.69Z" fill="#263238"/><path d="M121,73.19h-60.23c-.276142,0-.5-.223858-.5-.5s.223858-.5.5-.5h60.23c.276142,0,.5.223858.5.5s-.223858.5-.5.5Z" fill="#263238"/><path d="M55.29,99.21h-13.69c-.276142,0-.5-.223858-.5-.5v-13.71c0-.276142.223858-.5.5-.5h13.69c.276142,0,.5.223858.5.5v13.7c.002687.134332-.048803.264093-.142864.360036s-.222777.149991-.357136.149964Zm-13.19-1h12.69v-12.7h-12.69Z" fill="#263238"/><path d="M121,92.36h-60.23c-.276142,0-.5-.223858-.5-.5s.223858-.5.5-.5h60.23c.276142,0,.5.223858.5.5s-.223858.5-.5.5Z" fill="#263238"/><path d="M55.29,118.38h-13.69c-.276142,0-.5-.223858-.5-.5v-13.7c0-.276142.223858-.5.5-.5h13.69c.276142,0,.5.223858.5.5v13.7c0,.276142-.223858.5-.5.5Zm-13.19-1h12.69v-12.7h-12.69Z" fill="#263238"/><path d="M121,111.53h-60.23c-.276142,0-.5-.223858-.5-.5s.223858-.5.5-.5h60.23c.276142,0,.5.223858.5.5s-.223858.5-.5.5Z" fill="#263238"/><path d="M55.29,137.55h-13.69c-.276142,0-.5-.223858-.5-.5v-13.7c0-.276142.223858-.5.5-.5h13.69c.276142,0,.5.223858.5.5v13.7c0,.276142-.223858.5-.5.5Zm-13.19-1h12.69v-12.7h-12.69Z" fill="#263238"/><path d="M121,130.7h-60.23c-.276142,0-.5-.223858-.5-.5s.223858-.5.5-.5h60.23c.276142,0,.5.223858.5.5s-.223858.5-.5.5Z" fill="#263238"/><path d="M55.29,156.72h-13.69c-.276142,0-.5-.223858-.5-.5v-13.69c0-.276142.223858-.5.5-.5h13.69c.276142,0,.5.223858.5.5v13.69c0,.276142-.223858.5-.5.5Zm-13.19-1h12.69v-12.72h-12.69Z" fill="#263238"/><path d="M121,149.87h-60.23c-.276142,0-.5-.223858-.5-.5s.223858-.5.5-.5h60.23c.276142,0,.5.223858.5.5s-.223858.5-.5.5Z" fill="#263238"/><path d="M55.29,175.89h-13.69c-.276142,0-.5-.223858-.5-.5v-13.69c0-.276142.223858-.5.5-.5h13.69c.276142,0,.5.223858.5.5v13.69c0,.276142-.223858.5-.5.5Zm-13.19-1h12.69v-12.69h-12.69Z" fill="#263238"/><path d="M121,169h-60.23c-.276142,0-.5-.223858-.5-.5s.223858-.5.5-.5h60.23c.276142,0,.5.223858.5.5s-.223858.5-.5.5Z" fill="#263238"/><path d="M438.92,317.38h-9.42c-.276142,0-.5-.223858-.5-.5v-9.42c0-.276142.223858-.5.5-.5h9.42c.276142,0,.5.223858.5.5v9.42c0,.276142-.223858.5-.5.5Zm-8.92-1h8.42v-8.38h-8.42Z" fill="#263238"/><path d="M484.13,312.67h-41.45c-.276142,0-.5-.223858-.5-.5s.223858-.5.5-.5h41.45c.276142,0,.5.223858.5.5s-.223858.5-.5.5Z" fill="#263238"/><path d="M438.92,330.57h-9.42c-.276142,0-.5-.223858-.5-.5v-9.42c0-.276142.223858-.5.5-.5h9.42c.276142,0,.5.223858.5.5v9.42c-.00532.273908-.226092.49468-.5.5Zm-8.92-1h8.42v-8.42h-8.42Z" fill="#263238"/><path d="M484.13,325.86h-41.45c-.273908-.00532-.49468-.226092-.5-.5c0-.276142.223858-.5.5-.5h41.45c.276142,0,.5.223858.5.5s-.223858.5-.5.5Z" fill="#263238"/><path d="M438.92,343.76h-9.42c-.276142,0-.5-.223858-.5-.5v-9.42c0-.276142.223858-.5.5-.5h9.42c.276142,0,.5.223858.5.5v9.42c-.00532.273908-.226092.49468-.5.5Zm-8.92-1h8.42v-8.42h-8.42Z" fill="#263238"/><path d="M484.13,339.05h-41.45c-.273908-.00532-.49468-.226092-.5-.5c0-.276142.223858-.5.5-.5h41.45c.276142,0,.5.223858.5.5s-.223858.5-.5.5Z" fill="#263238"/><path d="M438.92,356.94h-9.42c-.276142,0-.5-.223858-.5-.5v-9.44c0-.276142.223858-.5.5-.5h9.42c.273908.00532.49468.226092.5.5v9.42c.005446.136038-.044818.268415-.139183.366555s-.22467.153554-.360817.153445Zm-8.92-1h8.42v-8.42h-8.42Z" fill="#263238"/><path d="M484.13,352.23h-41.45c-.276142,0-.5-.223858-.5-.5.00532-.273908.226092-.49468.5-.5h41.45c.276142,0,.5.223858.5.5s-.223858.5-.5.5Z" fill="#263238"/><path d="M438.92,370.13h-9.42c-.276142,0-.5-.223858-.5-.5v-9.42c0-.276142.223858-.5.5-.5h9.42c.273908.00532.49468.226092.5.5v9.42c0,.276142-.223858.5-.5.5Zm-8.92-1h8.42v-8.42h-8.42Z" fill="#263238"/><path d="M484.13,365.42h-41.45c-.276142,0-.5-.223858-.5-.5.00532-.273908.226092-.49468.5-.5h41.45c.276142,0,.5.223858.5.5s-.223858.5-.5.5Z" fill="#263238"/><path d="M438.92,383.32h-9.42c-.276142,0-.5-.223858-.5-.5v-9.42c0-.276142.223858-.5.5-.5h9.42c.276142,0,.5.223858.5.5v9.42c0,.276142-.223858.5-.5.5Zm-8.92-1h8.42v-8.42h-8.42Z" fill="#263238"/><path d="M484.13,378.61h-41.45c-.276142,0-.5-.223858-.5-.5s.223858-.5.5-.5h41.45c.276142,0,.5.223858.5.5s-.223858.5-.5.5Z" fill="#263238"/></g><g><path d="M267.23,107.47h-59.3c-.276142,0-.5-.223858-.5-.5v-42.45c0-.276142.223858-.5.5-.5h59.3c.276142,0,.5.223858.5.5v42.48c-.01589.264362-.235161.470477-.5.47Zm-58.8-1h58.3v-41.47h-58.3Z" fill="#263238"/><path d="M237.58,86.25c-.103659.000787-.205-.030663-.29-.09L207.64,64.93c-.109224-.076537-.183343-.193539-.205878-.324992s.008383-.266462.085878-.375008c.165608-.21924.47513-.267879.7-.11l29.36,21l29.36-21c.143561-.122928.344167-.154402.518477-.081346s.292528.238156.305542.426707-.0814.368327-.244019.464639L237.87,86.16c-.08556.058184-.186532.08952-.29.09Z" fill="#263238"/><path d="M308.32,78L272,78c-.276142,0-.5-.223858-.5-.5v-26c0-.276142.223858-.5.5-.5h36.34c.276142,0,.5.223858.5.5v26c.000109.136147-.055306.266452-.153445.360817s-.230517.144629-.366555.139183Zm-35.84-1h35.34v-25h-35.34Z" fill="#263238"/><path d="M290.15,65c-.105261.00083-.207622-.034467-.29-.1l-18.17-13c-.109224-.076537-.183343-.193539-.205878-.324992s.008383-.266462.085878-.375008c.162568-.222588.472577-.275733.7-.12l17.88,12.8L308,51.1c.227423-.155733.537432-.102588.7.12.077495.108546.108413.243554.085878.375008s-.096654.248455-.205878.324992l-18.17,13c-.07662.052269-.16725.080155-.26.08Z" fill="#263238"/><path d="M77,427.25h-36.3c-.273908-.00532-.49468-.226092-.5-.5v-26c.00532-.273908.226092-.49468.5-.5h36.3c.276142,0,.5.223858.5.5v26c0,.276142-.223858.5-.5.5Zm-35.84-1h35.38v-25h-35.34Z" fill="#263238"/><path d="M58.87,414.24c-.103468-.00048-.20444-.031816-.29-.09l-18.17-13c-.21924-.165608-.267879-.47513-.11-.7.161971-.217949.468289-.266783.69-.11l17.88,12.8l17.88-12.8c.22487-.157879.534392-.10924.7.11.077495.108546.108413.243554.085878.375008s-.096654.248455-.205878.324992l-18.17,13c-.085.059337-.186341.090787-.29.09Z" fill="#263238"/></g><g><rect width="464.24" height="1" rx="0" ry="0" transform="translate(19.35 440.795966)" fill="#263238"/></g><g><path d="M17.63,332.22c3.26-.53,9.39-4.69,9.4-4.69s-4-3.21-4.25-3.38c-3.21-2-10.57-3.9-13.77-1.16-1.052583.948163-1.653543,2.298333-1.653543,3.715s.60096,2.766837,1.653543,3.715c2.18,2.06,5.84,2.25,8.62,1.8Z" fill="#263238"/><path d="M31.41,348.85c2.89-1.32,7.4-6.51,7.76-6.92c2.964074,2.586355,6.097727,4.971672,9.38,7.14c1.9,1.27,3.86,2.5,5.84,3.7-1-.41-1.87-.78-2-.81-3.61-1.06-11.22-1-13.59,2.51-.759991,1.196818-.976177,2.660004-.594764,4.025465s1.324566,2.504809,2.594764,3.134535c2.62,1.42,6.21.64,8.76-.53s6.54-5.54,7.56-6.7l2.29,1.36c3.68,2.17,7.35,4.31,10.89,6.52c1.25.78,2.45,1.59,3.66,2.4-.88-.36-1.62-.67-1.74-.7-3.61-1.06-11.22-1-13.59,2.52-.759991,1.196818-.976177,2.660004-.594764,4.025465s1.324566,2.504809,2.594764,3.134535c2.62,1.41,6.2.63,8.76-.54s6.15-5.11,7.38-6.49c1.21.86,2.42,1.73,3.55,2.62.76.63,1.53,1.18,2.26,1.85l2.16,1.9c1.34,1.28,2.73,2.59,4,3.87.89.89,1.73,1.74,2.57,2.61-1.23-.79-3.68-2.29-3.89-2.39-3.42-1.59-11-2.66-13.82.43-.933669,1.06625-1.370976,2.478642-1.203169,3.885933s.924961,2.677255,2.083169,3.494067c2.38,1.79,6,1.57,8.74.8c3-.85,8-5.1,8.67-5.64c1.4,1.44,2.74,2.85,4,4.19c2.76,3,5.14,5.69,7.12,8l2.33-1.5c-2.11-2.37-4.66-5.16-7.63-8.22-1.41-1.47-2.94-3-4.53-4.56c1.225748-1.737482,2.350926-3.543776,3.37-5.41c3.08.8,9.21.1,10,0c.37,2,.71,3.88,1,5.69.63,3.79,1.1,7.2,1.46,10.12l2.52-1.62c-.41-2.65-.9-5.65-1.51-8.93-.37-2-.81-4.13-1.27-6.3.75-.29,6.92-2.71,9.09-4.92c2-2,3.92-5.12,3.49-8.07-.164048-1.40729-.91744-2.678911-2.072924-3.498809s-2.604563-1.111086-3.987076-.801191c-4.09,1-6.75,8.17-7,11.93c0,.22.1,2.64.2,4.17-.19-.89-.37-1.75-.58-2.67-.41-1.8-.87-3.6-1.36-5.52l-.81-2.8c-.25-.94-.64-1.9-1-2.87-.78-2.21-1.68-4.41-2.64-6.62c1.58-.36,7.18-1.72,9.44-3.41s4.65-4.47,4.66-7.44c.054182-1.416268-.49524-2.788992-1.511626-3.776773s-2.404229-1.497805-3.818374-1.403227c-4.2.41-7.91,7.05-8.72,10.73c0,.23-.32,2.94-.45,4.43-.58-1.32-1.16-2.64-1.8-3.95-1.83-3.8-3.8-7.58-5.75-11.37-.6-1.16-1.18-2.32-1.77-3.48.56-.12,7.25-1.6,9.79-3.5c2.25-1.68,4.65-4.46,4.66-7.44.051535-1.416423-.500499-2.788166-1.518802-3.774051s-2.407183-1.493267-3.821198-1.395949c-4.19.41-7.91,7.05-8.71,10.73-.06.28-.46,4.17-.51,5.17-1.29-2.56-2.56-5.12-3.7-7.69-1.560008-3.470939-2.896076-7.038243-4-10.68.26-.06,7.25-1.57,9.85-3.51c2.25-1.69,4.65-4.47,4.66-7.44.051535-1.416423-.500499-2.788166-1.518802-3.774051s-2.407183-1.493267-3.821198-1.395949c-4.19.41-7.91,7.05-8.71,10.73-.06.28-.49,4.47-.51,5.24-.06-.21-.15-.42-.21-.64-.996993-3.683712-1.666266-7.448376-2-11.25-.21-2.09-.3-4.11-.33-6.08c1.33-.14,7.4-.88,9.93-2.37s5.11-3.93,5.45-6.89c.20517-1.401397-.19363-2.824059-1.097342-3.914615s-2.22754-1.746675-3.642658-1.805385c-4.21-.06-8.63,6.13-9.84,9.7-.06.2-.51,2.24-.81,3.74c0-.89,0-1.8,0-2.65c0-3.19.27-6.11.5-8.69.14-1.47.3-2.79.46-4c1.23-.83,6.15-4.22,7.68-6.66s2.72-5.84,1.66-8.62c-.462149-1.338993-1.470555-2.419126-2.774688-2.972047s-2.781591-.526738-4.065312.072047c-3.77,1.89-4.84,9.42-4.26,13.15c0,.32,1.41,5.26,1.48,5.22l.07-.05c-.18,1.19-.35,2.46-.52,3.86-.29,2.58-.58,5.5-.69,8.7-.15895,3.449576-.115543,6.905504.13,10.35.25167,3.859376.850761,7.688206,1.79,11.44s0,.08,0,.13c-.65-1.05-2.58-3.93-2.75-4.13-2.43-2.88-8.82-7-12.72-5.4-1.29406.577538-2.282273,1.677062-2.718938,3.025195s-.280766,2.81824.428938,4.044805c1.4,2.63,4.82,4,7.6,4.39c3.13.49,9.76-1.35,10.29-1.5c1.045073,3.795202,2.341263,7.516739,3.88,11.14.89,2.11,1.85,4.21,2.84,6.31-.6-.89-1.13-1.68-1.22-1.79-2.43-2.87-8.83-7-12.73-5.39-1.283044.592545-2.255401,1.700392-2.676508,3.049459s-.251628,2.813334.466508,4.030541c1.41,2.63,4.83,4,7.61,4.4s8.5-1,10-1.43c.39.8.76,1.61,1.15,2.41c1.87,3.83,3.76,7.64,5.49,11.44.61,1.34,1.17,2.68,1.72,4-.52-.79-1-1.45-1-1.54-2.44-2.88-8.83-7-12.73-5.4-1.317052.566194-2.327714,1.67048-2.775315,3.032411s-.289075,2.850472.435315,4.087589c1.41,2.62,4.83,3.95,7.61,4.39s7.94-.88,9.73-1.35c.53,1.38,1.06,2.78,1.51,4.15.29.94.63,1.82.87,2.79l.75,2.81c.41,1.81.85,3.67,1.21,5.44.25,1.24.48,2.41.71,3.6-.6-1.34-1.81-3.94-1.94-4.14-1.835738-2.761833-4.349147-5.006686-7.3-6.52-.19294-.313288-.41028-.610877-.65-.89-.913709-1.083946-2.24461-1.729063-3.661546-1.774832s-2.786696.512112-3.768454,1.534832c-2.84,3.12-1.13,10.53.75,13.8.11.19,1.55,2.15,2.47,3.37-.65-.64-1.28-1.26-2-1.9-1.33-1.29-2.71-2.53-4.18-3.87l-2.22-1.88c-.73-.65-1.58-1.24-2.37-1.87-1.88-1.41-3.84-2.75-5.86-4.06c1.13-1.18,5-5.4,6-8.06s1.42-6.29-.21-8.78c-.737859-1.208563-1.953559-2.047593-3.345264-2.308776s-2.828893.079977-3.954736.938776c-3.28,2.66-2.72,10.25-1.35,13.76.08.22,1.34,2.63,2.06,3.94-1.22-.78-2.42-1.56-3.68-2.31-3.62-2.15-7.36-4.22-11.07-6.3l-3.4-1.93c.41-.41,5.17-5.33,6.24-8.31c1-2.65,1.41-6.29-.22-8.78-.737859-1.208563-1.953559-2.047593-3.345264-2.308776s-2.828893.079977-3.954736.938776c-3.28,2.66-2.71,10.24-1.35,13.75.1.27,1.92,3.73,2.43,4.59-2.49-1.42-5-2.85-7.33-4.37-3.21831-2.031396-6.30145-4.269428-9.23-6.7.19-.19,5.19-5.31,6.28-8.36.94-2.65,1.41-6.29-.22-8.78-.737859-1.208563-1.953559-2.047593-3.345264-2.308776s-2.828893.079977-3.954736.938776c-3.28,2.66-2.71,10.25-1.35,13.76.11.27,2.06,4,2.47,4.65l-.53-.41c-2.86774-2.5201-5.504866-5.29109-7.88-8.28-1.34-1.63-2.52-3.26-3.64-4.88c1-.86,5.69-4.83,7-7.46s2.09-6.1.74-8.75c-.599572-1.281871-1.714268-2.24963-3.067629-2.663263s-2.818619-.234394-4.032371.493263c-3.55,2.28-3.82,9.89-2.86,13.53.06.2.81,2.15,1.39,3.56-.5-.73-1-1.48-1.48-2.2-1.72-2.68-3.14-5.25-4.37-7.53-.69-1.3-1.29-2.49-1.84-3.61.57-1.37,2.8-6.91,2.73-9.79s-.95-6.38-3.37-8.11c-1.123833-.864066-2.561626-1.210468-3.95566-.953019s-2.613261,1.094543-3.35434,2.303019c-2.09,3.66,1.17,10.54,3.71,13.32.22.24,4.08,3.61,4.11,3.54.003148-.026574.003148-.053426,0-.08.51,1.09,1.06,2.25,1.7,3.51c1.18,2.31,2.55,4.91,4.22,7.64c1.784112,2.955954,3.740836,5.804222,5.86,8.53c2.343309,3.073998,4.953442,5.935106,7.8,8.55l.11.09c-1.13-.52-4.31-1.86-4.57-1.93-3.62-1.06-11.22-1-13.59,2.52-.759991,1.196818-.976177,2.660004-.594764,4.025465s1.324566,2.504809,2.594764,3.134535c2.61,1.41,6.19.61,8.75-.54Z" fill="#263238"/><path d="M81.44,293c.07,0-1.54-4.87-1.68-5.16-1.59-3.42-6.66-9.09-10.85-8.57-1.398618.216905-2.639787,1.016399-3.415613,2.200154s-1.013618,2.640856-.654387,4.009846c.66,2.91,3.61,5.09,6.17,6.25C74,293.05,81.43,293,81.44,293Z" fill="#263238"/><path d="M419.22,210.12c1.12,2.34,5.6,6,5.6,6s1.54-3.69,1.61-3.94c.77-2.84.6-8.8-2.17-10.61-.94666-.581149-2.095823-.732218-3.160519-.415481s-1.944418,1.071382-2.419481,2.075481c-1.07,2.11-.41,4.9.54,6.89Z" fill="#263238"/><path d="M409.76,224.15c1.63,1.88,6.53,4.12,6.92,4.3-1.287813,2.801291-2.390187,5.684167-3.3,8.63-.53,1.71-1,3.46-1.49,5.21.09-.83.17-1.58.17-1.68c0-3-1.75-8.65-4.89-9.66-1.065487-.312731-2.213762-.156441-3.156907.429684s-1.591717,1.546498-1.783093,2.640316c-.49,2.28.89,4.81,2.33,6.47s5.61,3.69,6.71,4.2c-.17.68-.35,1.35-.52,2-.82,3.24-1.62,6.47-2.5,9.62-.31,1.11-.65,2.19-1,3.28.09-.74.15-1.37.15-1.46c0-3-1.75-8.65-4.89-9.66-1.065487-.312731-2.213762-.156441-3.156907.429684s-1.591717,1.546498-1.783093,2.640316c-.49,2.29.89,4.81,2.33,6.47s5.2,3.49,6.51,4.11c-.38,1.1-.77,2.2-1.19,3.25-.3.71-.55,1.41-.89,2.11s-.65,1.38-1,2.06c-.67,1.29-1.35,2.63-2,3.87-.47.87-.93,1.69-1.39,2.51.32-1.1.9-3.27.93-3.45.45-2.92-.41-8.82-3.37-10.29-1.006906-.467735-2.165181-.485358-3.185851-.048473s-1.807487,1.28708-2.164149,2.338473c-.83,2.18.15,4.88,1.33,6.75c1.29,2.05,5.6,4.92,6.15,5.27-.77,1.36-1.54,2.68-2.27,3.92-1.63,2.72-3.14,5.11-4.45,7.12l1.64,1.41c1.31-2.1,2.85-4.64,4.5-7.55.79-1.38,1.6-2.87,2.42-4.41c1.577145.535838,3.182977.9832,4.81,1.34.08,2.49,2,6.95,2.21,7.52-1.39.71-2.76,1.39-4.05,2-2.71,1.31-5.17,2.42-7.29,3.34l1.77,1.53c1.91-.89,4.06-1.92,6.39-3.11c1.42-.72,2.92-1.51,4.45-2.35.39.51,3.56,4.61,5.71,5.76c1.94,1,4.71,1.81,6.83.83c1.023349-.430697,1.814614-1.277153,2.175441-2.327176s.257003-2.204063-.285441-3.172824c-1.68-2.84-7.63-3.27-10.5-2.62-.17,0-2,.66-3.09,1.08l1.87-1c1.27-.71,2.51-1.45,3.86-2.24l1.92-1.23c.65-.4,1.29-.9,1.94-1.35c1.49-1.08,2.95-2.24,4.4-3.44.62,1.11,2.87,5,4.65,6.34s4.38,2.51,6.62,1.86c1.078312-.268718,1.990777-.984687,2.508277-1.96813s.590884-2.140947.201723-3.18187c-1.23-3.07-7.05-4.39-10-4.18-.18,0-2.28.4-3.42.63.86-.73,1.72-1.45,2.57-2.22c2.45-2.21,4.86-4.53,7.27-6.84l2.23-2.09c.21.39,2.8,5.1,4.79,6.58c1.76,1.32,4.38,2.51,6.62,1.86c1.076522-.271546,1.986845-.987941,2.503858-1.970456s.591959-2.138496.206142-3.179544c-1.24-3.06-7.05-4.39-10-4.18-.22,0-3.24.58-4,.76c1.64-1.54,3.29-3,5-4.48c2.262265-1.938343,4.647217-3.728727,7.14-5.36.1.18,2.78,5.1,4.81,6.62c1.77,1.32,4.38,2.51,6.63,1.86c1.074689-.273842,1.982531-.99118,2.497484-1.973406s.588569-2.136926.202516-3.176594c-1.23-3.06-7-4.39-10-4.18-.24,0-3.48.62-4.06.78l.43-.3c2.54275-1.567972,5.219973-2.906583,8-4c1.53-.62,3-1.13,4.49-1.59.41,1,2.3,5.37,4,6.94s4.08,3,6.38,2.58c1.100474-.154116,2.083832-.768048,2.705494-1.689098s.823205-2.062664.554506-3.140902c-.89-3.18-6.52-5.13-9.47-5.25-.16,0-1.8.11-3,.21l2-.59c2.41-.67,4.65-1.14,6.64-1.54c1.14-.22,2.17-.39,3.13-.54.9.74,4.53,3.69,6.7,4.29s5,.77,6.85-.65c.90854-.639575,1.501155-1.636302,1.629091-2.739993s-.220952-2.209554-.959091-3.040007c-2.25-2.41-8.15-1.56-10.82-.3-.23.11-3.65,2.22-3.6,2.26v0c-.93.13-1.93.27-3,.46-2,.35-4.27.78-6.7,1.4-2.627143.642944-5.214816,1.43761-7.75,2.38-2.841101,1.048068-5.584923,2.343018-8.2,3.87l-.09.06c.65-.72,2.38-2.8,2.5-3c1.62-2.47,3.31-8.18,1.25-10.76-.718648-.847197-1.763757-1.348692-2.874283-1.379222s-2.181608.412788-2.945717,1.219222c-1.67,1.63-1.91,4.5-1.62,6.68.32,2.47,3.17,7,3.39,7.41-2.61796,1.624012-5.12667,3.417856-7.51,5.37q-2.09,1.71-4.12,3.53l1.08-1.31c1.62-2.47,3.31-8.18,1.24-10.76-.716801-.846714-1.760276-1.348089-2.869237-1.378628s-2.178449.412647-2.940763,1.218628c-1.67,1.63-1.91,4.5-1.63,6.68s2.64,6.17,3.28,7.21l-1.55,1.4c-2.47,2.25-4.92,4.51-7.39,6.65-.87.75-1.76,1.46-2.64,2.18.48-.57.87-1.06.93-1.14c1.62-2.46,3.31-8.17,1.24-10.75-.716897-.850056-1.762568-1.353664-2.874145-1.384223s-2.183338.414838-2.945855,1.224223c-1.66,1.63-1.9,4.5-1.62,6.68s2.42,5.78,3.17,7c-.93.7-1.86,1.41-2.79,2.05-.64.43-1.23.88-1.9,1.27l-1.95,1.19c-1.27.7-2.58,1.44-3.83,2.1-.87.47-1.7.9-2.54,1.33.87-.74,2.56-2.23,2.68-2.37c1.671118-1.986898,2.803968-4.369672,3.29-6.92.195304-.212589.369458-.443678.52-.69.616798-.924371.81113-2.067529.534432-3.14379s-.998286-1.983944-1.984432-2.49621c-3-1.44-8.17,1.48-10.21,3.61-.12.13-1.28,1.64-2,2.61.33-.64.66-1.24,1-1.9.67-1.29,1.3-2.59,2-4l.93-2.09c.32-.69.58-1.46.87-2.19.65-1.72,1.23-3.5,1.77-5.3c1.13.58,5.17,2.6,7.38,2.72s5-.32,6.55-2.1c.748013-.820249,1.112102-1.919792,1.001454-3.024368s-.685603-2.110053-1.581454-2.765632c-2.73-1.88-8.3.22-10.64,2-.15.12-1.68,1.6-2.51,2.42.32-1.08.64-2.16.92-3.27.82-3.2,1.55-6.46,2.3-9.71.22-1,.46-2,.7-3c.4.21,5.15,2.71,7.62,2.85c2.2.13,5-.32,6.55-2.1.748013-.820249,1.112102-1.919792,1.001454-3.024368s-.685603-2.110053-1.581454-2.765632c-2.72-1.88-8.3.22-10.64,2-.17.14-2.38,2.27-2.91,2.84.52-2.19,1.05-4.36,1.67-6.48.811341-2.867096,1.813579-5.676702,3-8.41.18.1,5.13,2.72,7.67,2.87c2.2.13,5-.32,6.55-2.1.746944-.821577,1.109351-1.921986.996788-3.026633s-.68948-2.109339-1.586788-2.763367c-2.72-1.88-8.3.22-10.63,2-.19.14-2.56,2.44-3,2.88.07-.15.13-.33.2-.48c1.260459-2.711124,2.759707-5.304689,4.48-7.75.93-1.37,1.9-2.62,2.87-3.81.87.58,4.88,3.21,7.15,3.59s5,.23,6.74-1.37c.832802-.7345,1.314019-1.788458,1.323559-2.898844s-.4535-2.172456-1.273559-2.921156c-2.49-2.16-8.27-.69-10.79.84-.14.09-1.44,1.09-2.38,1.83.45-.53.9-1.09,1.33-1.59c1.64-1.89,3.26-3.52,4.7-4.95.82-.81,1.59-1.53,2.31-2.19c1.15.13,5.81.59,8-.11s4.58-2.12,5.35-4.32c.398121-1.03497.339269-2.190138-.161977-3.179287s-1.397981-1.719726-2.468023-2.010713c-3.22-.77-7.66,3.2-9.2,5.72-.13.22-1.81,3.87-1.75,3.87h.07c-.71.62-1.46,1.3-2.26,2.05-1.48,1.4-3.13,3-4.81,4.86-1.836148,1.985434-3.555697,4.075605-5.15,6.26-1.797053,2.441849-3.373268,5.038755-4.71,7.76v.1c.14-1,.44-3.65.44-3.86c0-3-1.74-8.65-4.89-9.66-1.065487-.312731-2.213762-.156441-3.156907.429684s-1.591717,1.546498-1.783093,2.640316c-.49,2.53.89,5.02,2.33,6.68Z" fill="#263238"/><path d="M462.81,249.42c0,.05,3.32-2.23,3.51-2.4c2.22-2,5.36-7,4-10.05-.469963-1.003471-1.343626-1.760417-2.403803-2.082665s-2.207299-.179534-3.156197.392665c-2,1.14-3,3.84-3.33,6-.32,2.58,1.38,8.13,1.38,8.14Z" fill="#263238"/></g><g><rect width="326.36" height="312.72" rx="0" ry="0" transform="translate(93.32 128.64)" fill="none"/><path d="M419.68,441.86h-326.36c-.276142,0-.5-.223858-.5-.5v-312.72c0-.276142.223858-.5.5-.5h326.36c.276142,0,.5.223858.5.5v312.72c0,.276142-.223858.5-.5.5Zm-325.86-1h325.36v-311.72h-325.36Z" fill="#263238"/><rect width="326.36" height="312.72" rx="0" ry="0" transform="translate(98.74 124.43)" opacity="0.3" fill="#fff"/><path d="M425.1,437.65h-326.36c-.276142,0-.5-.223858-.5-.5v-312.72c0-.276142.223858-.5.5-.5h326.36c.276142,0,.5.223858.5.5v312.72c-.00532.273908-.226092.49468-.5.5Zm-325.86-1h325.36v-311.72h-325.36Z" fill="#263238"/><path d="M259.06,421.05c-.273908-.00532-.49468-.226092-.5-.5v-281c.00532-.273908.226092-.49468.5-.5.276142,0,.5.223858.5.5v281c0,.276142-.223858.5-.5.5Z" fill="#263238"/></g><g><g opacity="0.2"><rect width="21.28" height="9.67" rx="0" ry="0" transform="translate(276.63 183.1)"/><rect width="21.28" height="9.67" rx="0" ry="0" transform="translate(288.53 171.08)"/><rect width="21.28" height="9.67" rx="0" ry="0" transform="translate(301.48 183.1)"/><rect width="21.28" height="9.67" rx="0" ry="0" transform="translate(338.52 149.82)"/><rect width="21.28" height="9.67" rx="0" ry="0" transform="translate(350.42 137.79)"/><rect width="21.28" height="9.67" rx="0" ry="0" transform="translate(363.37 149.82)"/><rect width="21.28" height="9.67" rx="0" ry="0" transform="translate(301.48 213.97)"/><rect width="21.28" height="9.67" rx="0" ry="0" transform="translate(313.38 201.94)"/><rect width="21.28" height="9.67" rx="0" ry="0" transform="translate(326.33 213.97)"/><rect width="21.28" height="9.67" rx="0" ry="0" transform="translate(368.02 304.96)"/><rect width="21.28" height="9.67" rx="0" ry="0" transform="translate(379.92 292.93)"/><rect width="21.28" height="9.67" rx="0" ry="0" transform="translate(392.87 304.96)"/><rect width="21.28" height="9.67" rx="0" ry="0" transform="translate(368.02 405.17)"/><rect width="21.28" height="9.67" rx="0" ry="0" transform="translate(379.92 393.14)"/><rect width="21.28" height="9.67" rx="0" ry="0" transform="translate(392.87 405.17)"/><rect width="21.28" height="9.67" rx="0" ry="0" transform="translate(282.24 327)"/><rect width="21.28" height="9.67" rx="0" ry="0" transform="translate(294.14 314.98)"/><rect width="21.28" height="9.67" rx="0" ry="0" transform="translate(307.09 327)"/><rect width="21.28" height="9.67" rx="0" ry="0" transform="translate(282.24 361.88)"/><rect width="21.28" height="9.67" rx="0" ry="0" transform="translate(294.14 349.85)"/><rect width="21.28" height="9.67" rx="0" ry="0" transform="translate(307.09 361.88)"/><rect width="21.28" height="9.67" rx="0" ry="0" transform="translate(332.34 361.88)"/><rect width="21.28" height="9.67" rx="0" ry="0" transform="translate(344.24 349.85)"/><rect width="21.28" height="9.67" rx="0" ry="0" transform="translate(357.19 361.88)"/></g></g><g transform="translate(1.186404 61.124942)"><path d="M120.64,253.6v-4.46c.629214.009844,1.25813-.033645,1.88-.13.433973-.058243.844663-.230802,1.19-.5.306247-.284805.521877-.653462.62-1.06.137965-.58976.201792-1.194432.19-1.8v-24h6.34v24.24c.038528,1.454837-.17114,2.905601-.62,4.29-.371122,1.095942-1.147545,2.00833-2.17,2.55-1.361322.637559-2.858881.929514-4.36.85Z" fill="#263238"/><path d="M144.23,253.22c-1.885287.094904-3.760353-.330619-5.42-1.23-1.323261-.816948-2.331231-2.057527-2.86-3.52-.619181-1.758981-.913959-3.61574-.87-5.48v-11.6c-.044326-1.85449.250514-3.701476.87-5.45.522007-1.450804,1.533344-2.674311,2.86-3.46c3.455083-1.593675,7.434917-1.593675,10.89,0c1.330699.784279,2.35112,2.002429,2.89,3.45.611866,1.746763.903209,3.589677.86,5.44v11.63c.042145,1.863317-.249102,3.719167-.86,5.48-.53366,1.468612-1.553386,2.710631-2.89,3.52-1.678239.897134-3.569595,1.318972-5.47,1.22Zm0-4.58c.648738.058149,1.294556-.139185,1.8-.55.40469-.409009.67355-.932762.77-1.5.133667-.658258.200672-1.328308.2-2v-14.74c.003648-.671835-.063388-1.342191-.2-2-.096586-.561379-.365732-1.078699-.77-1.48-.50394-.414394-1.149913-.615363-1.8-.56-.627796-.047473-1.249108.153645-1.73.56-.400573.404008-.669077.920093-.77,1.48-.133108.658187-.19679,1.328523-.19,2v14.72c-.000729.670306.056147,1.339434.17,2c.08963.565284.351551,1.089126.75,1.5.493224.413313,1.128275.617821,1.77.57Z" fill="#263238"/><path d="M157.75,252.79v-31.12h6.3v31.12Z" fill="#263238"/><path d="M168.82,252.79v-31.12h4.42l6.91,16.21v-16.21h5.23v31.12h-4.23l-6.91-17.21v17.21Z" fill="#263238"/><path d="M208.47,253.22c-1.900662.10205-3.792836-.319971-5.47-1.22-1.305836-.795563-2.281925-2.03431-2.75-3.49-.567568-1.793782-.834504-3.669095-.79-5.55v-21.29h6.26v22.17c-.000522.760252.059669,1.519331.18,2.27.078929.659556.342354,1.283458.76,1.8.476961.490813,1.147723.743723,1.83.69.692032.06005,1.374561-.193146,1.86-.69.422439-.512668.683432-1.139052.75-1.8.103737-.752268.157189-1.510618.16-2.27v-22.17h6.26v21.33c.044504,1.880905-.222432,3.756218-.79,5.55-.471391,1.437726-1.439149,2.660716-2.73,3.45-1.694812.910858-3.609262,1.333214-5.53,1.22Z" fill="#263238"/><path d="M230,253.22c-1.66695.056653-3.321275-.307917-4.81-1.06-1.289842-.71716-2.308649-1.837848-2.9-3.19-.718345-1.725233-1.101833-3.571403-1.13-5.44l5.45-.92c.030311,1.080915.167649,2.156168.41,3.21.140127.723419.487561,1.390493,1,1.92.450976.423343,1.051778.649992,1.67.63.655131.079818,1.299858-.213591,1.67-.76.297447-.541951.449061-1.151855.44-1.77.042355-1.168464-.286737-2.320284-.94-3.29-.721198-.982443-1.553371-1.87837-2.48-2.67l-3.23-2.8c-1.116911-.939458-2.069898-2.058035-2.82-3.31-.767016-1.383368-1.143769-2.949137-1.09-4.53-.145105-2.198573.672351-4.351693,2.24-5.9c1.720079-1.444991,3.927188-2.178309,6.17-2.05c1.321872-.051102,2.637248.209233,3.84.76.946107.467144,1.750437,1.178269,2.33,2.06.549652.859652.939259,1.811647,1.15,2.81.215445.987327.34923,1.990717.4,3l-5.42.81c-.05-1-.13-1.78-.24-2.5-.075064-.616572-.317106-1.200932-.7-1.69-.395252-.431045-.966988-.656051-1.55-.61-.65838-.048005-1.290683.266231-1.65.82-.357919.542755-.545924,1.179882-.54,1.83-.039664.95955.222648,1.907373.75,2.71.596553.809648,1.284424,1.547851,2.05,2.2l3.15,2.77c1.299095,1.119098,2.430657,2.419046,3.36,3.86.983457,1.610589,1.473635,3.473963,1.41,5.36.021886,1.397804-.322898,2.776943-1,4-.65544,1.163961-1.621354,2.12295-2.79,2.77-1.293868.677573-2.740044,1.011571-4.2.97Z" fill="#263238"/><path d="M144.81,275.91v-17.35h1.63v17.35Z" fill="#263238"/><path d="M151.66,275.91v-16.09h-3.28v-1.26h8.08v1.26h-3.17v16.09Z" fill="#263238"/><path d="M158.35,263.46l-.39-.57c.355697-.119016.643317-.384791.79-.73.153917-.477567.221639-.978709.2-1.48h-.86v-2.12h1.8v1.8c.026282.710624-.082299,1.419794-.32,2.09-.224952.509982-.676988.884209-1.22,1.01Z" fill="#263238"/><path d="M165.8,276.12c-.822263.031248-1.636699-.169761-2.35-.58-.617876-.401377-1.104596-.97501-1.4-1.65-.331643-.788096-.527736-1.626565-.58-2.48l1.44-.43c.060061.65795.187392,1.308013.38,1.94.155964.531571.461423,1.007115.88,1.37.470714.363005,1.05655.544082,1.65.51.654978.04002,1.30003-.174997,1.8-.6.47174-.518746.703952-1.211755.64-1.91.019362-.707894-.175853-1.405089-.56-2-.451583-.646945-.974911-1.240721-1.56-1.77l-3.06-2.93c-.495334-.470086-.901838-1.025642-1.2-1.64-.263942-.584187-.397046-1.218993-.39-1.86-.065117-1.034326.330191-2.044558,1.08-2.76.785069-.682335,1.800616-1.039922,2.84-1c.5617-.006428,1.121208.071094,1.66.23.478649.146713.914483.407527,1.27.76.369575.387855.649497.852116.82,1.36.218946.64712.356667,1.318929.41,2l-1.39.36c-.041748-.635881-.162683-1.264068-.36-1.87-.139711-.476461-.431139-.894291-.83-1.19-1.045932-.596835-2.341964-.538455-3.33.15-.520539.472637-.768549,1.175332-.66,1.87-.006734.444698.085492.88533.27,1.29.240538.466456.562227.886345.95,1.24l3.07,2.89c.675795.641501,1.270245,1.363573,1.77,2.15.502413.79159.763055,1.712523.75,2.65.02889.761274-.143581,1.516696-.5,2.19-.32518.569303-.812569,1.028842-1.4,1.32-.66438.289238-1.386126.422641-2.11.39Z" fill="#263238"/><path d="M176.34,275.91v-17.35h6.23v1.22h-4.57v6.53h3.83v1.2h-3.83v8.4Z" fill="#263238"/><path d="M184.61,275.91v-17.35h3.92c.883483-.044691,1.763969.134157,2.56.52.606329.33978,1.078921.875854,1.34,1.52.283709.75714.419497,1.561686.4,2.37.003353.612899-.067155,1.22397-.21,1.82-.125925.537016-.375942,1.037051-.73,1.46-.382981.421302-.897819.699879-1.46.79l2.66,8.87h-1.59l-2.5-8.53h-2.72v8.53Zm1.63-9.73h2.2c.585347.032718,1.168804-.091569,1.69-.36.403928-.244033.70855-.623041.86-1.07.18804-.574047.275988-1.176151.26-1.78.056908-.83795-.138117-1.673768-.56-2.4-.564509-.606835-1.388724-.901463-2.21-.79h-2.24Z" fill="#263238"/><path d="M195.55,275.91v-17.35h6.28v1.26h-4.63v6.52h3.8v1.19h-3.8v7.16h4.67v1.22Z" fill="#263238"/><path d="M204.08,275.91v-17.35h6.28v1.26h-4.63v6.52h3.77v1.19h-3.77v7.16h4.67v1.22Z" fill="#263238"/><path d="M212.41,275.91v-1.86h1.67v1.86Zm.56-3.73l-.54-13.62h1.67l-.57,13.62Z" fill="#263238"/></g><g transform="translate(1.186404 47.223477)"><rect width="60.12" height="39.96" rx="0" ry="0" transform="translate(147.94 169.83)" fill="#31708e"/><path d="M208.06,210.29h-60.12c-.276142,0-.5-.223858-.5-.5v-40c0-.276142.223858-.5.5-.5h60.12c.276142,0,.5.223858.5.5v40c0,.276142-.223858.5-.5.5Zm-59.62-1h59.12v-39h-59.12Z" fill="#263238"/><polygon points="208.06,169.83 178,189.81 147.94,169.83 208.06,169.83" fill="#263238"/><path d="M178,190.31c-.098686-.001973-.195168-.02954-.28-.08l-30.06-20c-.179852-.124468-.260313-.349759-.2-.56.06584-.209372.260524-.351329.48-.35h60.12c.217224.002662.407874.145286.471762.35292s-.013608.432763-.191762.55708l-30.06,20c-.084832.05046-.181314.078027-.28.08Zm-28.41-20L178,189.21l28.4-18.88Z" fill="#263238"/><polygon points="155.91,175.35 155.91,149.53 200.03,149.53 200.03,175.14 178,189.81 155.91,175.35" fill="#fff"/><path d="M178,190.31c-.098686-.001973-.195168-.02954-.28-.08l-22.08-14.46c-.140401-.094271-.226191-.250929-.23-.42v-25.82c0-.276142.223858-.5.5-.5h44.09c.276142,0,.5.223858.5.5v25.61c.001927.16808-.080731.32588-.22.42l-22,14.67c-.084832.05046-.181314.078027-.28.08Zm-21.59-15.23L178,189.21l21.53-14.33v-24.88h-43.12Z" fill="#263238"/><path d="M190.88,159h-26.63c-.276142,0-.5-.223858-.5-.5s.223858-.5.5-.5h26.63c.276142,0,.5.223858.5.5s-.223858.5-.5.5Z" fill="#263238"/><path d="M190.88,165.68h-26.63c-.276142,0-.5-.223858-.5-.5s.223858-.5.5-.5h26.63c.276142,0,.5.223858.5.5s-.223858.5-.5.5Z" fill="#263238"/><path d="M190.88,172.39h-26.63c-.276142,0-.5-.223858-.5-.5s.223858-.5.5-.5h26.63c.276142,0,.5.223858.5.5s-.223858.5-.5.5Z" fill="#263238"/><polygon points="147.94,209.79 178.07,184.7 208.06,209.79 147.94,209.79" fill="#31708e"/><path d="M208.06,210.29h-60.12c-.208437-.002057-.393728-.133207-.464964-.329104s-.013466-.415434.144964-.550896l30.13-25.1c.185391-.154417.454609-.154417.64,0l30,25.09c.15843.135462.216199.354999.144964.550896s-.256527.327047-.464964.329104Zm-58.74-1h57.36l-28.61-23.94Z" fill="#263238"/></g><g transform="matrix(1.373661 0 0 1.373661-125.839603-164.478385)"><path d="M325.68,287c0,0-3.29,17.94-3.79,23.25s-1,26.91,2.78,41.56c2.2596,8.797128,5.384851,17.34886,9.33,25.53s2.52,10.36,4,13.14s14.15,24.26,14.15,24.26-.76,8.84-1.26,10.36-2.28,10.86-1.77,13.64s1.26,4.55.5,8.09-1.77,7.07,0,10.11s6.07,3.28,7.33,1.51c2.288898-2.935613,3.29175-6.672862,2.78-10.36-.76-5-3.29-11.62-2.78-14.4.514724-2.185882,1.276281-4.306162,2.27-6.32s9.61,19.71,10.11,21.23s1.52,7.83,2,9.85s3.29-.76,4.3-2s4.8-6.57,4-10.11-3-9.85-3-9.85l3.77,5c.152619.242036.463152.330087.720099.204183s.377651-.425262.279901-.694183c-.71-2.43-1.67-5.65-2-6.26-.51-1-.76-4.3-2.78-7.07s-7.58-.26-7.58-.26l-4.3-13.64c0,0,7.84-25.77,6.32-34.37s-2.27-14.9-1.77-16.67s10.11-28.43,10.11-34s.25-18.95-2.78-26.28c-2.062302-4.856605-4.426936-9.579194-7.08-14.14Z" fill="#fff"/><path d="M354.34,460.06h-.26c-1.98417-.095011-3.792701-1.165901-4.83-2.86-1.71-2.94-1-6.3-.26-9.55l.2-.92c.464337-2.085702.402479-4.25416-.18-6.31-.11-.5-.22-1-.33-1.58-.52-2.9,1.28-12.35,1.79-13.89.578126-3.337344.988641-6.701563,1.23-10.08-1.09-1.85-12.64-21.5-14.08-24.14s-3.85-12.29-4.07-13.2c-3.94443-8.185761-7.082565-16.73609-9.37-25.53-3.72-14.41-3.34-35.94-2.79-41.74.5-5.27,3.76-23.11,3.8-23.29l.07-.42h.43l44.24,1.27.14.24c2.659945,4.585958,5.034454,9.331637,7.11,14.21c2.87,6.94,2.84,19.32,2.82,25.27v1.2c0,4.6-6.32,23-9,30.82-.6,1.73-1,3-1.12,3.31-.26.9-.37,4.25,1.78,16.45c1.48,8.36-5.58,32.12-6.28,34.45l4.08,13c1.5-.58,5.8-1.94,7.67.63c1.176058,1.750319,1.998177,3.713894,2.42,5.78.099231.467044.236351.925227.41,1.37.25.51.93,2.64,2,6.34.15057.489716-.074275,1.016598-.532031,1.246713s-1.014751.096267-1.317969-.316713l-1.89-2.49c.71,2.13,1.6,5,2,7c.89,4.17-3.94,10.27-4.14,10.52s-2.64,3.24-4.21,2.9c-.524607-.111899-.923797-.539032-1-1.07-.22-.88-.53-2.54-.86-4.3-.41-2.2-.88-4.68-1.15-5.51-.38-1.13-6.22-13.22-9.63-20.23-.787428,1.679046-1.387707,3.439641-1.79,5.25-.28,1.55.49,4.54,1.31,7.71.603212,2.149625,1.093879,4.329253,1.47,6.53.543388,3.813533-.489203,7.683945-2.86,10.72-.76671.846747-1.880737,1.293095-3.02,1.21ZM326.09,287.52c-.5,2.74-3.25,18-3.7,22.79-.55,5.75-.93,27.1,2.76,41.39c2.268855,8.756068,5.386972,17.269768,9.31,25.42v.1c0,.11,2.53,10.33,4,13s14,24,14.14,24.25l.08.13v.16c0,.37-.77,8.92-1.29,10.48s-2.24,10.69-1.75,13.39c.1.55.21,1.06.31,1.55.615107,2.193681.680363,4.505109.19,6.73l-.2.92c-.71,3.21-1.37,6.23.14,8.83.855002,1.40729,2.355001,2.296039,4,2.37.922231.124475,1.84736-.207527,2.48-.89c2.223814-2.826777,3.198871-6.438098,2.7-10-.31-2-.89-4.26-1.45-6.43-.85-3.28-1.65-6.37-1.33-8.14.514174-2.234583,1.293007-4.399873,2.32-6.45l.45-.91.44.91c.4.81,9.63,19.76,10.14,21.29.29.89.74,3.31,1.18,5.65.33,1.74.63,3.38.85,4.24.05.2.12.31.2.33.53.11,2.06-1.1,3.22-2.54c1.64-2.06,4.58-6.72,3.94-9.69-.74-3.47-3-9.73-3-9.79l-1.11-3.08l5.75,7.59.58-.19-.48.14c-1.39-4.77-1.81-5.92-1.94-6.18-.211368-.506229-.372151-1.032122-.48-1.57-.394588-1.939275-1.162138-3.783432-2.26-5.43-1.75-2.42-6.91-.12-7-.09l-.51.23-4.51-14.33v-.15c.08-.25,7.79-25.75,6.31-34.13-1.67-9.45-2.26-15.14-1.76-16.9.1-.34.51-1.54,1.13-3.35c2.45-7.13,9-26.07,9-30.5v-1.2c0-5.88.05-18.13-2.74-24.88-2.016962-4.75408-4.324659-9.379494-6.91-13.85Z" fill="#263238"/><path d="M368.23,424.47l-3.39-10.74c0,0,7.84-25.77,6.32-34.37s-2.27-14.9-1.77-16.67s9.22-28.5,10.11-34c1.577861-8.846608.613883-17.959322-2.78-26.28-2.062302-4.856605-4.426936-9.579194-7.08-14.14l-44-1.27c0,0-3.29,17.94-3.79,23.25s-1,26.91,2.78,41.56c2.272464,8.798585,5.411129,17.350359,9.37,25.53s2.52,10.36,4,13.14s14.15,24.26,14.15,24.26-.44,5.08-.87,8.2c1.747696,1.273324,3.779888,2.100619,5.92,2.41l2,2c0,0,5.8,2.55,9.03-2.88Z" fill="#263238"/><path d="M362.36,428.45c-1.122036-.004477-2.233745-.214618-3.28-.62l-.15-.1-1.89-1.9c-2.166697-.345102-4.221956-1.194609-6-2.48l-.27-.17.05-.31c.38-2.76.77-7.13.85-8-1.09-1.85-12.64-21.5-14.08-24.14s-3.85-12.29-4.07-13.2c-3.934144-8.186865-7.06222-16.737164-9.34-25.53-3.72-14.41-3.34-35.94-2.79-41.74.5-5.27,3.76-23.11,3.8-23.29l.07-.42h.43l44.24,1.27.14.24c2.659945,4.585958,5.034454,9.331637,7.11,14.21c3.411583,8.396324,4.388909,17.583877,2.82,26.51-.71,4.41-6.26,21.85-8.92,30.24-.65,2.05-1.1,3.45-1.2,3.81-.26.9-.37,4.25,1.78,16.45c1.48,8.36-5.58,32.12-6.28,34.45l3.4,10.81-.11.19c-1.234951,2.32935-3.673953,3.76724-6.31,3.72Zm-2.79-1.5c.7.28,5.33,1.91,8.11-2.54l-3.36-10.68v-.15c.08-.25,7.79-25.75,6.31-34.13-1.67-9.45-2.26-15.14-1.76-16.9.1-.36.55-1.77,1.21-3.83c2.45-7.71,8.18-25.77,8.89-30.1c1.545451-8.752868.592339-17.764109-2.75-26-2.014716-4.755115-4.322482-9.380666-6.91-13.85l-43.26-1.25c-.5,2.74-3.25,18-3.7,22.79-.55,5.75-.93,27.1,2.76,41.39c2.268855,8.756068,5.386972,17.269768,9.31,25.42v.1c0,.11,2.53,10.33,4,13s14,24,14.14,24.25l.08.13v.16c0,.05-.42,4.8-.83,7.91c1.607279,1.144281,3.466243,1.885122,5.42,2.16h.18Z" fill="#263238"/><path d="M361.7,403.64c-.226232.002269-.424605-.150644-.48-.37-1.15-4.42-2.72-10.37-3.68-13.66-1.74-6-7.26-21.29-7.32-21.45-.004817-.039855-.004817-.080145,0-.12l-4.53-45.87-8.39-5.43c-.231616-.149355-.298706-.457966-.15-.69.156298-.228223.46391-.29414.7-.15l8.59,5.56c.125388.083837.206229.219797.22.37l4.54,46.05c.38,1.05,5.62,15.63,7.32,21.45c1,3.3,2.53,9.26,3.68,13.69.070208.26489-.085884.536935-.35.61Z" fill="#fff"/><path d="M363.58,410.94c-.227595-.000182-.427523-.151148-.49-.37s-.37-1.48-.94-3.7c-.069036-.276142.098858-.555964.375-.625s.555964.098858.625.375c.57,2.22.94,3.7.94,3.7.033388.128641.014187.265281-.053361.379738s-.177886.197311-.306639.230262Z" fill="#fff"/><path d="M348.67,323.39h-.16c-.126447-.043118-.23038-.135045-.288618-.255279s-.065938-.258774-.021382-.384721c1-2.87,3.09-6.92,6.35-12c.083142-.173703.258651-.284219.451226-.284132s.367985.110762.450969.28454.058793.379769-.062195.529592c-2.507583,3.698996-4.600196,7.662887-6.24,11.82-.085627.185742-.275746.300606-.48.29Z" fill="#fff"/><path d="M357.08,308.25c-.100558.000727-.198698-.030818-.28-.09-.228137-.152591-.290624-.460559-.14-.69c1.43-2.12,2.46-3.55,2.47-3.57.105393-.144693.279973-.222167.457977-.20324s.33239.13138.405001.295.052415.353547-.052978.49824-1,1.43-2.45,3.54c-.09214.13633-.245459.218599-.41.22Z" fill="#fff"/><path d="M379.5,434.7c-.51-1-.76-4.3-2.78-7.07-.607366-.780778-1.531258-1.250057-2.52-1.28c1.72,4.35.12,7.83,1,11.13c1,3.79,1.77,7.07.26,9.85s-5.31,4.3-5.31,4.3h-.07c.47,2.44,1,5.51,1.33,6.81.51,2,3.29-.76,4.3-2s4.8-6.57,4-10.11-3-9.85-3-9.85l4.38,5.78c.107833.138223.297867.181799.45515.104367s.238637-.254613.19485-.424367c-.74-2.46-1.89-6.54-2.24-7.24Z" fill="#263238"/><path d="M372.16,459.67c-.089732.009828-.180268.009828-.27,0-.524607-.111899-.923797-.539032-1-1.07-.22-.88-.53-2.54-.86-4.29-.16-.86-.32-1.74-.48-2.54l-.1-.5.5-.09v0c0,0,3.62-1.47,5-4.06s.75-5.54-.3-9.48c-.31594-1.474691-.396938-2.990033-.24-4.49.258399-2.221826.00177-4.473315-.75-6.58l-.3-.76.81.07c1.133033.037773,2.189664.580763,2.88,1.48c1.176058,1.750319,1.998177,3.713894,2.42,5.78.099231.467044.236351.925227.41,1.37v0c.27.56,1,3,2.28,7.31.111193.401704-.078141.825833-.451434,1.011259s-.82565.080046-1.078566-.251259l-2.49-3.29c.71,2.13,1.6,5,2,7c.89,4.17-3.94,10.27-4.14,10.52s-2.29,2.86-3.84,2.86ZM370.65,452c.13.69.27,1.42.4,2.14.33,1.73.63,3.38.85,4.23.05.2.12.31.2.33.53.11,2.06-1.1,3.22-2.54c1.64-2.06,4.58-6.72,3.94-9.69-.74-3.47-3-9.73-3-9.79l-.82-2.29c-.061204,1.007343.026404,2.018206.26,3c1.07,4,1.77,7.35.2,10.22-1.35,2.39-4.28,3.91-5.25,4.39Zm4.79-18l5.62,7.41c-1.05-3.65-1.78-6-2-6.45v0c-.211368-.506229-.372151-1.032122-.48-1.57-.394588-1.939275-1.162138-3.783432-2.26-5.43-.316753-.462039-.782844-.801014-1.32-.96.552288,2.007011.728586,4.098864.52,6.17-.06.26-.07.53-.08.83Z" fill="#263238"/><path d="M359.85,448.64c-.37,1.2-.85,2.68-1.32,4-1,2.78-4.3,3-6.57.51-1.427777-1.802269-2.228311-4.021294-2.28-6.32-.76,3.54-1.77,7.07,0,10.11s6.07,3.28,7.33,1.51c2.162668-2.78837,3.178569-6.297521,2.84-9.81Z" fill="#263238"/><path d="M354.34,460.06h-.26c-1.98417-.095011-3.792701-1.165901-4.83-2.86-1.71-2.94-1-6.3-.26-9.55l1.18-5.48v4.67c.051009,2.179498.805166,4.284122,2.15,6c.865276,1.124961,2.261865,1.707191,3.67,1.53.972605-.208271,1.758877-.922023,2.06-1.87.4-1.1.84-2.44,1.32-4l.71-2.3.26,2.4c.355736,3.633393-.692645,7.265155-2.93,10.15-.758031.89834-1.896926,1.384317-3.07,1.31Zm-4.75-10.43c-.5,2.54-.71,4.94.52,7.05.855002,1.40729,2.355001,2.296039,4,2.37.922231.124475,1.84736-.207527,2.48-.89c1.373927-1.81761,2.295954-3.935872,2.69-6.18l-.29.83c-.421444,1.278296-1.492428,2.234939-2.81,2.51-1.75411.246561-3.507748-.453373-4.61-1.84-.947821-1.113636-1.625452-2.431252-1.98-3.85Z" fill="#263238"/><path d="M321.91,224.87c0,0-3.84,1.34-3.68,1.84s-6.13,32-6.13,32-4.47,11.6-4,15.74s4,9.11,7.95,9.11c2.611601.055327,5.036736-1.34809,6.29-3.64.83-1.16,3.65-6.63,3.65-6.63s-1,10.44-1.33,11.43-2,3.64-1.16,4.47c1.275395,1.08221,2.735399,1.925692,4.31,2.49c8.331709,1.717702,16.837994,2.439427,25.34,2.15c11.27-.66,18.06-3.64,18.06-3.64.372399-1.241355.816478-2.460068,1.33-3.65.33-.5,1-1.32,1-1.32s10.6-1.16,11.26-1.83s2.49-3.47,2.32-7.95s1.49-43.23.67-44.06c-1.491659-1.059227-3.066831-1.995635-4.71-2.8l-19.19-10.73-28.62,3.76Z" fill="#31708e"/><path d="M349.2,294.41c-7.223231-.068233-14.423114-.831756-21.5-2.28-1.653264-.586993-3.185159-1.471561-4.52-2.61-.87-.87,0-2.63.62-4c.157688-.325625.297887-.659433.42-1c.18-.56.66-4.91,1-8.76-.88,1.66-2,3.72-2.49,4.41l-.15.21c-1.356013,2.317172-3.866187,3.712139-6.55,3.64-4.18,0-7.91-5-8.45-9.55-.51-4.22,3.82-15.5,4-16c2.39-12,6-30.31,6.09-31.71-.11-.39,0-1,4-2.39h.05l13.38-3.29l28.67-3.76c.107176-.017202.216982.004051.31.06l19.19,10.72c1.687824.821015,3.300632,1.78803,4.82,2.89.51.51.56,4.57-.17,28.95-.22,7.4-.41,13.8-.35,15.44.18,4.64-1.72,7.58-2.46,8.33s-7.31,1.49-11.36,1.94c-.2.26-.61.78-.84,1.13-.489564,1.147257-.91031,2.322674-1.26,3.52-.04826.134156-.149487.242613-.28.3-.28.13-7,3-18.23,3.69-1.25.09-2.59.12-3.94.12ZM326,272.76h.14c.229845.069836.379796.290597.36.53-.11,1.07-1,10.52-1.35,11.54-.1.27-.27.64-.46,1.06-.36.75-1.2,2.53-.82,2.9c1.213735,1.021359,2.59834,1.820299,4.09,2.36c8.279303,1.705093,16.731921,2.420108,25.18,2.13c6.03885-.260759,12.00177-1.447947,17.68-3.52.352572-1.21269.790327-2.398973,1.31-3.55.34-.5,1-1.32,1-1.36.083281-.104779.206528-.170027.34-.18c4.94-.54,10.4-1.33,11-1.7.59-.59,2.3-3.3,2.14-7.56-.06-1.68.13-8.09.35-15.51.32-10.67.8-26.72.4-28.28-1.439098-.993836-2.949906-1.879598-4.52-2.65l-19.06-10.65-28.45,3.73-13.31,3.28c-1.164249.369331-2.284322.865651-3.34,1.48-.1,1-.91,5.9-6.12,31.95-.07.2-4.44,11.61-4,15.58s3.85,8.67,7.46,8.67c2.355818.06857,4.558122-1.165182,5.73-3.21l.16-.23c.79-1.11,3.58-6.51,3.6-6.56.098697-.173767.291383-.272076.49-.25Zm-7.31-46.2c.012154.076185.012154.153815,0,.23.031736-.072392.038764-.153217.02-.23Z" fill="#263238"/><path d="M326,243.63c-.84-3.93-4.25-10.21-4.28-10.28l.88-.47c.14.26,3.51,6.47,4.38,10.54Z" fill="#263238"/><path d="M321,264.64c-.159833-.001431-.310484-.074919-.41-.2-1.58-2.21-5.87-2.78-5.92-2.79-.276142-.035899-.470899-.288858-.435-.565s.288858-.470899.565-.435c.19,0,4.77.63,6.61,3.19.077495.108546.108413.243554.085878.375008s-.096654.248455-.205878.324992c-.084412.061736-.185477.096586-.29.1Z" fill="#263238"/><path d="M322.3,263.58c-.197091.002452-.377231-.111115-.46-.29-.650156-.855949-1.497543-1.542092-2.47-2-.245767-.127025-.342025-.429233-.215-.675s.429233-.342025.675-.215c.25.13,2.39,1.27,2.93,2.46.106923.251449-.003321.542491-.25.66-.064963.03464-.136542.055091-.21.06Z" fill="#263238"/><path d="M326,273.76c-.056268.009511-.113732.009511-.17,0-.126328-.042827-.229737-.135306-.286352-.256085s-.061544-.25942-.013648-.383915l.92-2.62-2.69-5.53-1.9.67c-.148932.059569-.317777.040809-.45-.05s-3.84-2.53-6.42-2.08-4.27,3.84-4.28,3.87c-.121503.248528-.421472.351503-.67.23s-.351503-.421472-.23-.67c.08-.16,2-3.88,5-4.41c2.63-.47,6.05,1.53,6.94,2.09l2.09-.75c.242626-.081098.507792.0301.62.26l3,6.12c.055192.124142.055192.265858,0,.39l-1,2.82c-.081805.181067-.26132.298142-.46.3Z" fill="#263238"/><path d="M376.94,243.12c-.062541.014167-.127459.014167-.19,0-.254407-.110067-.374317-.403182-.27-.66.79-1.84,3.28-7.48,3.28-7.48l.92.41c0,0-2.49,5.63-3.28,7.47-.089467.168998-.26907.270513-.46.26Z" fill="#263238"/><path d="M373.56,285.69c-.12721-.000763-.249137-.050968-.34-.14l-9.64-9.1c-.094656-.093883-.147899-.221681-.147899-.355s.053243-.261117.147899-.355c.092164-.094064.21831-.147071.35-.147071s.257836.053007.35.147071l9.64,9.1c.153378.139398.204854.35897.129412.552012s-.262158.319527-.469412.317988Z" fill="#263238"/><path d="M369.78,284.34c-.075625.017873-.154375.017873-.23,0l-9.65-5c-.158983-.082171-.262052-.242917-.270381-.421686s.079346-.348402.23-.445.341398-.105485.500381-.023314l9.65,5c.200327.108066.302385.337795.248287.558889s-.250696.377749-.478287.381111Z" fill="#263238"/><path d="M332.53,292.62c-.255738.000853-.469125-.195114-.49-.45-.029262-.273057.167179-.518609.44-.55L358,288.87c.131697-.016845.264592.020474.368268.103415s.169257.204402.181732.336585c.029262.273057-.167179.518609-.44.55l-25.52,2.76Z" fill="#263238"/><path d="M350.64,262.61h-.05c-.132877-.012617-.255194-.077838-.339715-.181142s-.12423-.236114-.110285-.368858c.17-1.53,3.08-30.06,3.11-30.35.027614-.276142.273858-.477614.55-.45s.477614.273858.45.55c0,.29-2.93,28.82-3.1,30.36-.035189.254035-.253551.442426-.51.44Z" fill="#263238"/><path d="M348.23,283.31h-.05c-.132877-.012617-.255194-.077838-.339715-.181142s-.12423-.236114-.110285-.368858l.86-9.48c.031383-.269901.268864-.467802.54-.45.132772.010194.255993.07293.342344.174299s.1287.232997.117656.365701l-.87,9.48c-.020558.256612-.232602.455674-.49.46Z" fill="#263238"/><polygon points="365.7,213.04 363.16,219.47 354.79,229.03 347.32,219.17 347.93,206.71 357.33,215.28 365.7,213.04" fill="#fff"/><path d="M354.76,229.83l-7.95-10.5v-.18l.67-13.52l10,9.1l9.06-2.43-3,7.5ZM347.83,219l7,9.23l7.91-9l2.14-5.42-7.67,2.06-8.82-8Z" fill="#263238"/><path d="M358.09,173.58c0,0-14.73,5.33-16.76,9.52-1.716821,3.962164-3.033363,8.08599-3.93,12.31c0,.51-7,3.31-8.38,5.46s.12,8.51,0,10.29-6.6,3.81-7.24,7.74c-.433148,1.982004-.388588,4.038617.13,6l11.3-1.78c0,0,7.36,2.92,11.3,1.4s4.31-9.14,4.06-11.68-.64-6.1-.64-6.1L353.14,192l11.8-3.56l7.49,7-6.88,18.08c0,0-2.17,4.39-1.79,5.53s3.85,2.29,3.85,2.29l15.49,7.24c.396287-1.18368.526048-2.440318.38-3.68-.25-2-3.56-6.35-3.56-7.62s4.32-6.22,2.29-10.66-4.19-6.86-5.33-9.14s1-6.61-1.27-12.19-9.78-10.41-11.81-11.55-5.71-.16-5.71-.16Z" fill="#263238"/><path d="M383.37,229.23l-16-7.46c-.57-.19-3.68-1.28-4.11-2.59s1.28-4.84,1.82-5.91l6.74-17.72-7-6.56-11.29,3.4-5.08,14.38c.07.63.4,3.71.62,6c.22,2.13.1,10.46-4.37,12.19-3.83,1.48-10.49-.95-11.54-1.35l-11.57,1.82-.14-.38c-.54567-2.031652-.597103-4.164406-.15-6.22.41-2.53,2.91-4.26,4.93-5.65c1.06-.73,2.26-1.56,2.3-2-.012906-.883994-.086412-1.766063-.22-2.64-.34-2.78-.76-6.24.3-7.88.94-1.46,4-3.08,6.3-4.26.685676-.338325,1.353249-.712166,2-1.12.920962-4.235764,2.260889-8.369438,4-12.34c2.1-4.32,16.43-9.55,17-9.77v0c.15,0,3.9-1.06,6.09.17.09,0,9.38,5.33,12,11.8c1.03733,2.747329,1.380813,5.708153,1,8.62-.207068,1.17811-.12819,2.38872.23,3.53.539632.935247,1.130533,1.839959,1.77,2.71c1.387336,2.019061,2.604841,4.149696,3.64,6.37c1.57,3.42-.36,7.07-1.51,9.25-.308302.508307-.553446,1.052325-.73,1.62.353479,1.063116.851478,2.072572,1.48,3c.935212,1.389066,1.634621,2.923036,2.07,4.54.163586,1.32084.023354,2.661595-.41,3.92Zm-18.29-41.36l7.94,7.41-7,18.39c-1,2.06-2,4.61-1.79,5.19s2,1.46,3.54,2l15,7c.240967-.953587.305361-1.943227.19-2.92-.455162-1.47877-1.129312-2.881002-2-4.16-1-1.73-1.61-2.82-1.61-3.52.139629-.743718.428803-1.451345.85-2.08c1.13-2.15,2.84-5.4,1.48-8.38-1.013559-2.17091-2.204253-4.254625-3.56-6.23-.640571-.929454-1.228172-1.894322-1.76-2.89-.438373-1.285825-.548374-2.660835-.32-4c.338475-2.764133-.00485-5.569101-1-8.17-2.52-6.15-11.5-11.26-11.59-11.31-1.76-1-5.05-.15-5.32-.08-.61.22-14.57,5.37-16.46,9.26-1.690789,3.898362-2.990492,7.954911-3.88,12.11c0,.46-.4.69-2.54,1.8s-5.12,2.67-5.92,3.92-.43,4.87-.15,7.21c.147143.936277.224024,1.882251.23,2.83-.07,1-1.25,1.78-2.74,2.81-1.85,1.28-4.16,2.87-4.51,5-.332296,1.757767-.332296,3.562233,0,5.32l11-1.73.13.05c.07,0,7.23,2.83,10.94,1.4s4-8.67,3.74-11.16-.63-6.09-.63-6.09v-.12-.1l5.29-15Zm-28.18,7.5v0Z" fill="#263238"/><path d="M363.42,183.86c0,0-11.42,5.08-12.31,7.49s-3.3,13.59-3.18,15.36s7.75,10.92,9.27,11.18s9.35-4.28,10.75-5.3s6-16.29,5.88-18.7-9.14-9.89-10.41-10.03Z" fill="#fff"/><path d="M357.3,218.39h-.18c-1.76-.29-9.54-9.64-9.69-11.63s2.35-13.25,3.21-15.57c.93-2.54,11.39-7.25,12.58-7.77l.12-.06h.13c1.42.14,10.71,7.68,10.86,10.5.13,2.49-4.5,18-6.09,19.13-1.01.75-8.79,5.4-10.94,5.4Zm6.17-34c-4.36,2-11.31,5.54-11.89,7.14-.91,2.45-3.27,13.46-3.15,15.15.11,1.53,7.47,10.44,8.85,10.71c1.16.2,8.58-3.9,10.37-5.2c1.14-.86,5.81-15.89,5.68-18.27-.11-2.09-8.48-9-9.86-9.53Z" fill="#263238"/><path d="M374.19,196.14c-4.57-1.37-9.39-9-10.8-11.34-1.37,1.9-5.69,7.26-12.27,9l-.26-1c7.51-2,12.09-9.18,12.14-9.25l.45-.72.41.74c.05.1,5.69,10.09,10.62,11.57Z" fill="#263238"/><path d="M348.23,194.6l-.19-1c3.72-.75,14.95-10.05,15.06-10.14l.64.77c-.47.41-11.54,9.57-15.51,10.37Z" fill="#263238"/><path d="M360.93,208.09c-.312626.011579-.625396-.018689-.93-.09-.276142-.07732-.43732-.363858-.36-.64s.363858-.43732.64-.36c1.102902.179429,2.230579-.110649,3.11-.8.21865-.148256.514904-.100839.676357.108256s.132387.507709-.066357.681744c-.888899.668037-1.959117,1.051502-3.07,1.1Z" fill="#263238"/><path d="M360.23,210.9c-1.8509-.023114-3.60415-.834265-4.82-2.23-.148256-.21865-.100839-.514904.108256-.676357s.507709-.132387.681744.066357c1.655624,1.907227,4.40763,2.421156,6.64,1.24.254051-.110457.549543.005949.66.26s-.005949.549543-.26.66c-.944009.436819-1.969888.668579-3.01.68Z" fill="#263238"/><path d="M360.12,196.68c-.100347-.000621-.198084-.032037-.28-.09s-3-2-5.73-.72c-.25129.11598-.54902.00629-.665-.245s-.00629-.54902.245-.665c3.27-1.49,6.57.71,6.71.8.110819.074985.18696.191258.211391.322813s-.004884.267413-.081391.377187c-.090912.137683-.245011.22037-.41.22Z" fill="#263238"/><path d="M371.17,197.69c-.133157-.000684-.261366-.050543-.36-.14-1.4-1.4-4.63-.16-4.67-.15-.250442.076129-.517211-.053783-.611703-.297889s.015277-.519775.251703-.632111c.15-.06,3.88-1.49,5.74.37.191783.197814.191783.512186,0,.71-.096062.087195-.220304.136892-.35.14Z" fill="#263238"/><path d="M357.83,200c-.08.77-.63,1.34-1.22,1.28-.664945-.172263-1.075378-.838665-.93-1.51.09-.76.63-1.33,1.23-1.27.659492.172121,1.065527.834134.92,1.5Z" fill="#263238"/><path d="M367.86,201.5c.074022.46566-.151522.927812-.564151,1.155972s-.923962.173458-1.27899-.136822-.477709-.809685-.306859-1.24915c.08-.77.63-1.34,1.22-1.28.664945.172263,1.075378.838665.93,1.51Z" fill="#263238"/><polygon points="343.13,224.7 347.62,232.62 353.3,226.94 347.32,219.17 343.13,224.7" fill="#31708e"/><path d="M347.62,233.12h-.07c-.154133-.024775-.289504-.116242-.37-.25L342.7,225c-.10989-.166866-.10989-.383134,0-.55l4.19-5.53c.098165-.12134.244029-.194272.4-.2.15503-.001739.300944.073089.39.2l6,7.77c.170379.187012.170379.472988,0,.66L348,233c-.104566.090929-.242177.134385-.38.12Zm-3.89-8.38l4,7.06l4.9-4.9-5.31-6.9Z" fill="#263238"/><polygon points="356.88,227.24 360.92,233.07 367.61,221.31 363.91,217.82 356.88,227.24" fill="#31708e"/><path d="M360.92,233.57c-.162296-.000775-.314533-.07875-.41-.21l-4-5.83c-.119583-.178488-.119583-.411512,0-.59l7-9.41c.08179-.11966.215193-.193773.36-.2.140052-.018729.280768.029411.38.13L368,221c.170085.155905.211403.407949.1.61l-6.7,11.76c-.083667.14918-.239067.243936-.41.25Zm-3.42-6.32l3.38,4.88l6.1-10.72-3-2.84Z" fill="#263238"/><polygon points="337.97,266.75 329.18,266.75 328.08,246.41 339.07,246.41 337.97,266.75" fill="#fff"/><path d="M338.44,267.25h-9.73l-1.16-21.34h12Zm-8.79-1h7.84l1.05-19.34h-9.93Z" fill="#263238"/><rect width="13.11" height="3.08" rx="0" ry="0" transform="translate(326.92 244.68)" fill="#263238"/><path d="M340.53,248.26h-14.11v-4.08h14.11Zm-13.11-1h12.11v-2.08h-12.11Z" fill="#263238"/><rect width="9.64" height="1.45" rx="0" ry="0" transform="translate(328.76 243.23)" fill="#263238"/><path d="M338.89,245.18h-10.63v-2.45h10.63Zm-9.63-1h8.63v-.45h-8.63Z" fill="#263238"/><path d="M327.66,268.57c0,.05,0,.1,0,.12-.536614,1.545494-1.938736,2.62556-3.57,2.75-.87722.089939-1.75183-.193129-2.41-.78-.598004-.650183-.951496-1.48796-1-2.37-.334416-1.656602.201241-3.369193,1.42-4.54.42-.5,2-1.79,2.12-2.43l.89-7c0,0,8.72-2,9.47-1.89.314629.045367.588947.237621.738948.517887s.157817.615155.021052.902113c-.19.57-1.51.85-1.8.94s-4.55,1.14-4.55,1.14l-1.51,1.8c.734842-.366481,1.493172-.683844,2.27-.95.29,0,5-.66,5.59-.75.3487-.014974.679978.15294.874051.443029s.222859.660375.075949.976971c-.38.76-.66.94-.95.94s-5,.86-5,.86l-2.65,2.27c0,0,3.6-1.14,4-1.14s3.69-.09,3.79.48c.154125.598906-.176178,1.216051-.76,1.42-.66.19-3.22.57-3.22.57l-2.85,1.51h2.75c0,0,2.66.86,3.22,1s1,.38.19,1.23-6.65.17-6.65.17-.4,1.35-.5,1.81Z" fill="#fff"/><path d="M323.75,272c-.906285.018966-1.78458-.314428-2.45-.93-.696947-.725337-1.111876-1.675774-1.17-2.68-.349427-1.794775.229631-3.644754,1.54-4.92.13-.15.37-.39.65-.65.520238-.43583.974917-.944396,1.35-1.51l.94-7.37.34-.08c2.06-.47,8.85-2,9.65-1.9.411931.046613.780108.278564,1,.63.259812.438084.314632.968008.15,1.45-.25.73-1.36,1-2,1.21l-.16.05c-.27.09-3.45.87-4.43,1.11v0c.160721-.07387.333529-.117919.51-.13.34,0,4.91-.65,5.51-.75.533288-.038787,1.047323.207347,1.351464.647118s.35303,1.007596.128536,1.492882c-.31.61-.71,1.23-1.4,1.23-.26,0-3,.5-4.8.82l-.73.62c.601427-.195063,1.216431-.345472,1.84-.45h.15c3.35,0,4,.28,4.13.9.216288.855197-.269852,1.731125-1.11,2-.63.18-2.74.5-3.2.57l-1,.53h.91c1,.34,2.76.86,3.15.93.432132.010625.82034.266842,1,.66.19.53-.2,1.05-.5,1.4-.84.94-5.23.54-6.66.38c0,.17-.07.38-.12.59s-.13.67-.18.85v0c-.009922.061672-.026692.122046-.05.18-.602739,1.730375-2.173048,2.939513-4,3.08Zm1.76-17.24l-.85,6.68c-.07.58-.73,1.24-1.65,2.11-.202871.180045-.396455.37029-.58.57-1.130933,1.063955-1.623889,2.641413-1.3,4.16.036365.769207.340593,1.501477.86,2.07.550685.478587,1.273775.709976,2,.64c1.435578-.108388,2.669515-1.059384,3.14-2.42l.51.05-.49-.12c0-.17.11-.5.17-.82.27-1.32.31-1.48.78-1.43c2.6.3,5.8.37,6.23,0c.103872-.112586.194466-.236734.27-.37h-.17c-.55-.1-2.72-.79-3.22-1h-4.66l4.76-2.51c.71-.1,2.64-.4,3.16-.55.291482-.106128.467353-.403434.42-.71-1.035072-.21653-2.095345-.287214-3.15-.21h-.16c-.27,0-2.16.58-3.83,1.11l-2.34.74l4.62-4h.13c1.79-.33,4.83-.86,5.11-.86.06,0,.24-.15.5-.68.080392-.155684.060752-.344227-.05-.48-.080529-.128822-.218359-.210775-.37-.22-.29.05-5.29.76-5.67.76-.17,0-1.21.5-2.06.9l-2.08,1l3.11-3.7h.15c1.63-.4,4.3-1.06,4.52-1.13l.2-.06c1.06-.3,1.25-.5,1.28-.57.081791-.188163.081791-.401837,0-.59-.066763-.108032-.183081-.175571-.31-.18-.49-.05-4.96.86-8.98,1.77Z" fill="#263238"/><path d="M373.62,264.49L371.74,267c0,0,0,15,.59,16.25s5.18,4.71,7.65,4.71s7.31-5.65,7.54-6.59-6.12-19.2-6-19.67-.58-1.06-1.41-1.06-6.49,3.85-6.49,3.85Z" fill="#31708e"/><path d="M380,288.43c-2.72,0-7.45-3.55-8.11-5s-.63-13.95-.63-16.46c-.004058-.108805.031471-.215391.1-.3l1.88-2.48.12-.11c2.16-1.48,5.91-4,6.76-4c.640323-.009923,1.252038.264799,1.67.75.192944.234966.283064.53777.25.84.1.55,1.18,3.85,2.23,7.05c3.16,9.66,3.9,12.15,3.76,12.71-.32,1.23-5.31,7-8.03,7Zm-7.74-21.29c0,7.15.19,15.1.54,15.88.54,1.18,5,4.41,7.2,4.41s6.8-5.29,7.06-6.21c0-.72-2.25-7.6-3.74-12.16-2.28-6.94-2.34-7.24-2.27-7.51-.214521-.295859-.565202-.461773-.93-.44-2.144889,1.075868-4.195454,2.330292-6.13,3.75Z" fill="#263238"/><path d="M380.15,255.56l.3,6.34c0,0-.35,2.59-2,3.65-1.188724.670396-2.525503,1.03466-3.89,1.06l-1.06-2.12-1.64-1.65Z" fill="#fff"/><path d="M374.56,267.11h-.3l-1.17-2.32-2-2l9.47-8.32.35,7.38c0,.2-.41,2.92-2.23,4.1-1.254974.724515-2.671368,1.123305-4.12,1.16Zm-2-4.24l1.36,1.4.92,1.83c1.166956-.06651,2.301425-.40925,3.31-1c1.44-.92,1.78-3.27,1.78-3.3l-.26-5.21Z" fill="#263238"/><polygon points="382.06,246.94 370.13,244.45 362.66,264.38 372.75,266.21 382.06,246.94" fill="#263238"/><path d="M373,266.77l-11-2l7.83-20.88l13,2.71ZM363.34,264l9.12,1.66l8.87-18.35L370.45,245Z" fill="#263238"/><path d="M380.42,252c0,0-8,.36-8.09,1s.18,1.42.45,1.51s7.37,1.07,7.37,1.07s2-.45,1.86-2.05c.009145-.419104-.157506-.822914-.459572-1.113582s-.711985-.44167-1.130428-.416418Z" fill="#fff"/><path d="M380.17,256.07h-.09c-2.67-.36-7.19-1-7.46-1.08-.63-.21-.88-1.36-.78-2.06.06-.43.15-1,8.55-1.4.538436-.023815,1.066324.154526,1.48.5.405569.385879.636626.920199.64,1.48-.041706,1.279481-.985669,2.349306-2.25,2.55ZM373,254c.61.11,4.58.67,7.12,1c.32-.09,1.45-.5,1.4-1.51.000897-.279678-.115369-.54695-.320587-.736966s-.480631-.28541-.759413-.263034v-.5.5c-2.555493.053918-5.103033.30466-7.62.75.001981.263659.063513.523461.18.76Zm0,0" fill="#263238"/><path d="M375.89,255.11c0,0-7-.8-7.37-.35s-.71,1.06.35,1.51c2.627385.874888,5.297488,1.615841,8,2.22.985013-.056254,1.895523-.542591,2.49-1.33.26645-.427331.332236-.949967.18-1.43Z" fill="#fff"/><path d="M376.86,259c-2.766994-.598921-5.497999-1.353453-8.18-2.26-.476631-.150037-.849963-.523369-1-1-.070217-.487821.092709-.980302.44-1.33.18-.23.52-.66,7.81.17v0l3.89.67.11.22c.237521.615811.174675,1.307116-.17,1.87-.663649.965854-1.731073,1.576861-2.9,1.66Zm-8-3.83c-.19.26-.18.35-.18.37s.11.15.4.28c1.12.46,7.28,2.14,7.81,2.18.783396-.065561,1.505945-.448512,2-1.06.129659-.23294.201666-.493536.21-.76l-3.29-.56c-2.3084-.328964-4.638389-.482737-6.97-.46Z" fill="#263238"/><path d="M372.25,257.42c0,0-5.33-1.06-5.6-.53s-.35,1.42.18,1.78s7.64,2.3,8.08,2.48s1.51-.35,1.86-1.06c.209279-.507991.24099-1.071744.09-1.6Z" fill="#fff"/><path d="M375.11,261.69c-.132929-.002103-.264637-.025743-.39-.07-.13-.06-1.13-.35-2.11-.63-2.058111-.508756-4.082121-1.146686-6.06-1.91-.683829-.613146-.831166-1.627664-.35-2.41.17-.33.44-.88,6.14.26v0l4.9,1.14.08.27c.199769.659647.157209,1.368972-.12,2-.43161.766938-1.213423,1.271937-2.09,1.35ZM367,257.25c-.14.37-.15.86.06,1c.39.22,3.91,1.24,5.79,1.78c1.37.4,2,.59,2.21.66.429265-.027527.824936-.241691,1.082716-.586039s.351803-.784327.257284-1.203961l-4.3-1c-1.674118-.385931-3.382598-.603679-5.1-.65Z" fill="#263238"/><path d="M372.42,260.53c0,0-4-.8-4.17-.35s-.27,1.42.53,1.68s5.42,2.13,6.22,1.6.53-1.95.53-1.95Z" fill="#fff"/><path d="M374.53,264.05c-1.825354-.241911-3.606725-.743658-5.29-1.49l-.62-.22c-.368201-.119352-.669354-.387849-.83-.74-.210636-.515999-.210636-1.094001,0-1.61.13-.35.33-.83,4.73.05h.05l3.4,1.07v.3c0,.17.3,1.76-.74,2.46-.213731.119801-.454991.181839-.7.18Zm-5.87-3.51c-.060279.205674-.060279.424326,0,.63.046261.107014.137973.18772.25.22l.65.23c3.73,1.38,4.86,1.53,5.15,1.42s.35-.77.33-1.15L372.3,261c-1.197589-.259235-2.41557-.413155-3.64-.46Z" fill="#263238"/></g><g transform="translate(0-117.952693)"><path d="M396.28,143.67h36.27c3.391028,0,6.14,2.748972,6.14,6.14v24.58c0,3.391028-2.748972,6.14-6.14,6.14h-21.3l-9.74,13.72v-13.72h-5.23c-1.630161.002655-3.194464-.643064-4.348102-1.794825s-1.8019-2.715012-1.801898-4.345175v-24.58c-.000002-1.630163.648261-3.193414,1.801898-4.345175s2.717941-1.79748,4.348102-1.794825Z" fill="#263238"/><path d="M401.51,194.75c-.049553.009459-.100447.009459-.15,0-.207815-.061958-.350188-.253145-.35-.47v-13.28h-4.73c-3.668792.000004-6.644483-2.971212-6.65-6.64v-24.55c.005517-3.668788,2.981208-6.640004,6.65-6.64h36.27c3.664887.005507,6.634493,2.975113,6.64,6.64v24.58c-.005507,3.664887-2.975113,6.634493-6.64,6.64h-21l-9.59,13.51c-.104726.141728-.274107.220772-.45.21Zm-5.23-50.58c-3.116508-.000005-5.644484,2.523497-5.65,5.64v24.58c.005516,3.116503,2.533492,5.640005,5.65,5.64h5.23c.276142,0,.5.223858.5.5v12.15l8.84-12.44c.091184-.130957.240426-.209309.4-.21h21.3c3.112603-.005504,5.634496-2.527397,5.64-5.64v-24.58c-.005504-3.112603-2.527397-5.634496-5.64-5.64Z" fill="#263238"/><path d="M412.12,174.43h-.12c-1.094607-.045184-2.10491-.600296-2.73-1.5l-6.59-9.45c-.764415-1.023854-.91015-2.382905-.380199-3.545557s1.651362-1.944122,2.925589-2.038738s2.498757.512663,3.19461,1.584295l4,5.67l13.86-16.85c1.237832-1.450179,3.408674-1.642796,4.882504-.43322s1.708364,3.37629.527496,4.87322L414.9,173.16c-.684037.82574-1.707993,1.293518-2.78,1.27Z" fill="#31708e"/><path d="M428.91,147c.811178-.003423,1.59747.279926,2.22.8.718841.586502,1.174576,1.435083,1.266519,2.358263s-.187474,1.844979-.776519,2.561737l-16.79,20.42c-.666613.81027-1.660757,1.279829-2.71,1.28h-.12c-1.094607-.045184-2.10491-.600296-2.73-1.5l-6.59-9.45c-.764415-1.023854-.91015-2.382905-.380199-3.545557s1.651362-1.944122,2.925589-2.038738s2.498757.512663,3.19461,1.584295l4,5.67l13.86-16.85c.659883-.813324,1.652658-1.283972,2.7-1.28m0-2c-1.645048-.005036-3.205337.729217-4.25,2l-12.18,14.81-2.44-3.5c-1.806755-2.280352-5.076891-2.759176-7.461574-1.092547s-3.05892,4.90213-1.538426,7.382547l6.59,9.46c.988035,1.406403,2.572883,2.27456,4.29,2.35h.22c1.644418.002199,3.203553-.731512,4.25-2L433.16,154c1.355771-1.643439,1.640466-3.922042.730731-5.84854s-2.850238-3.154312-4.980731-3.15146Z" fill="#263238"/></g></svg>
