<svg xmlns="http://www.w3.org/2000/svg" height="24" viewBox="0 96 960 960" width="24"><path fill="rgb(255,0,0)" d="M288.309 947.999q-41.033 0-69.67-28.638-28.638-28.637-28.638-69.67V332h-10q-17.769 0-30.384-12.615-12.616-12.615-12.616-30.384t12.616-30.384q12.615-12.616 30.384-12.616H358q0-18.076 14.538-30.73 14.539-12.654 33.616-12.654h149.692q19.077 0 33.616 12.454Q604 227.525 604 246.001h177.999q17.769 0 30.384 12.616 12.616 12.615 12.616 30.384t-12.616 30.384Q799.768 332 781.999 332h-10v517.691q0 41.033-28.638 69.67-28.637 28.638-69.67 28.638H288.309ZM276 332v517.691q0 5.385 3.462 8.847 3.462 3.462 8.847 3.462h385.382q5.385 0 8.847-3.462 3.462-3.462 3.462-8.847V332H276Zm0 0v517.691q0 5.385 3.462 8.847 3.462 3.462 8.847 3.462H276V332Zm205 324.153 75.924 75.923q13.04 12.308 30.443 12.308 17.402 0 29.536-12.134 13.481-13.481 13.481-31t-13.308-29.326L541.153 596l75.923-75.924q13.308-13.04 13.308-30.25t-13.481-29.729q-12.519-13.481-29.729-13.481t-30.25 13.308L481 535.847l-75.924-75.923q-11.807-13.308-29.326-13.308t-31 13.481q-12.134 12.134-12.134 29.536 0 17.403 12.308 30.443L420.847 596l-75.923 75.924q-12.693 12.192-12.693 29.518 0 17.327 12.519 30.808 13.481 12.519 30.808 12.519 17.326 0 29.518-12.693L481 656.153Z"/></svg>