<svg xmlns="http://www.w3.org/2000/svg" height="24" viewBox="0 96 960 960" width="24"><path fill="rgb(255,0,0)" d="M288.309 947.999q-41.033 0-69.67-28.638-28.638-28.637-28.638-69.67V332h-10q-17.769 0-30.384-12.615-12.616-12.615-12.616-30.384t12.616-30.384q12.615-12.616 30.384-12.616H358q0-18.076 14.538-30.73 14.539-12.654 33.616-12.654h149.692q19.077 0 33.616 12.454Q604 227.525 604 246.001h177.999q17.769 0 30.384 12.616 12.616 12.615 12.616 30.384t-12.616 30.384Q799.768 332 781.999 332h-10v517.691q0 41.033-28.638 69.67-28.637 28.638-69.67 28.638H288.309ZM276 332v517.691q0 5.385 3.462 8.847 3.462 3.462 8.847 3.462h385.382q5.385 0 8.847-3.462 3.462-3.462 3.462-8.847V332H276Zm79.155 406.001q0 17.769 12.615 30.384Q380.385 781 398.154 781t30.384-12.615q12.616-12.615 12.616-30.384V455.999q0-17.769-12.616-30.384Q415.923 413 398.154 413t-30.384 12.615q-12.615 12.615-12.615 30.384v282.002Zm165.691 0q0 17.769 12.616 30.384Q546.077 781 563.846 781t30.384-12.615q12.615-12.615 12.615-30.384V455.999q0-17.769-12.615-30.384Q581.615 413 563.846 413t-30.384 12.615q-12.616 12.615-12.616 30.384v282.002ZM276 332v517.691q0 5.385 3.462 8.847 3.462 3.462 8.847 3.462H276V332Z"/></svg>