<?xml version="1.0" standalone="no"?>
<!DOCTYPE svg PUBLIC "-//W3C//DTD SVG 20010904//EN"
 "http://www.w3.org/TR/2001/REC-SVG-20010904/DTD/svg10.dtd">
<svg version="1.0" xmlns="http://www.w3.org/2000/svg"
 width="512.000000pt" height="512.000000pt" viewBox="0 0 512.000000 512.000000"
 preserveAspectRatio="xMidYMid meet">

<g transform="translate(0.000000,512.000000) scale(0.100000,-0.100000)"
fill="#000000" stroke="none">
<path d="M1748 3832 l-831 -830 6 -43 c5 -41 47 -84 1230 -1266 1182 -1183
1225 -1225 1266 -1230 l43 -6 830 831 831 830 -6 43 c-5 41 -27 64 -494 531
-473 472 -490 488 -526 488 -49 0 -73 -13 -93 -52 -33 -63 -31 -66 374 -470
l377 -378 -911 0 -910 0 -52 26 c-57 28 -96 69 -123 129 -18 38 -19 91 -19
950 l0 910 368 -368 c353 -352 369 -367 405 -367 21 0 49 7 62 16 33 22 50 77
36 112 -7 15 -222 238 -480 496 -446 446 -469 468 -510 473 l-43 6 -830 -831z
m792 -132 l0 -630 -637 0 -638 0 630 630 c346 347 633 630 637 630 5 0 8 -283
8 -630z m0 -1055 c5 -176 9 -229 23 -265 50 -126 151 -227 278 -277 35 -14 89
-18 264 -23 l220 -5 3 -632 c1 -348 -1 -633 -5 -633 -10 0 -2053 2043 -2053
2053 0 4 285 6 633 5 l632 -3 5 -220z m2250 -573 c0 -4 -283 -291 -630 -637
l-630 -630 0 638 0 637 630 0 c347 0 630 -3 630 -8z"/>
<path d="M51 3616 c-47 -26 -63 -84 -37 -135 24 -45 51 -51 246 -51 195 0 222
6 246 51 27 52 8 115 -41 137 -38 17 -382 16 -414 -2z"/>
<path d="M704 3620 c-56 -23 -72 -108 -30 -157 l24 -28 237 0 237 0 24 28 c33
38 33 96 0 134 l-24 28 -224 2 c-122 1 -233 -2 -244 -7z"/>
<path d="M3776 3445 c-41 -22 -55 -44 -56 -88 -1 -112 159 -134 191 -28 14 47
-6 93 -51 116 -36 19 -48 19 -84 0z"/>
<path d="M51 2566 c-47 -26 -63 -84 -37 -135 26 -49 42 -51 386 -51 l320 0 31
28 c26 24 32 36 32 72 0 36 -6 48 -32 72 l-31 28 -323 0 c-248 -1 -327 -4
-346 -14z"/>
<path d="M919 2552 c-28 -25 -34 -37 -34 -72 0 -35 6 -47 34 -72 29 -26 39
-30 75 -25 116 16 116 178 0 194 -36 5 -46 1 -75 -25z"/>
<path d="M718 2001 c-27 -24 -33 -36 -33 -71 0 -35 6 -47 33 -71 l32 -29 306
0 c252 0 310 3 334 15 35 18 50 43 50 85 0 42 -15 67 -50 85 -24 12 -82 15
-334 15 l-306 0 -32 -29z"/>
<path d="M321 1376 c-67 -37 -65 -143 4 -174 37 -17 1463 -17 1500 0 29 13 55
55 55 88 0 33 -26 75 -55 88 -40 18 -1471 16 -1504 -2z"/>
</g>
</svg>
