<?xml version="1.0" standalone="no"?>
<!DOCTYPE svg PUBLIC "-//W3C//DTD SVG 20010904//EN"
 "http://www.w3.org/TR/2001/REC-SVG-20010904/DTD/svg10.dtd">
<svg version="1.0" xmlns="http://www.w3.org/2000/svg"
 width="512.000000pt" height="512.000000pt" viewBox="0 0 512.000000 512.000000"
 preserveAspectRatio="xMidYMid meet">
<metadata>
Created by potrace 1.16, written by Peter Selinger 2001-2019
</metadata>
<g transform="translate(0.000000,512.000000) scale(0.100000,-0.100000)"
fill="#000000" stroke="none">
<path d="M633 4485 c-326 -88 -487 -461 -332 -767 43 -85 134 -178 218 -222
134 -70 -6 -66 2076 -66 1649 0 1888 2 1940 15 188 48 335 189 389 374 10 33
16 92 16 149 0 239 -137 431 -363 507 l-76 25 -1669 0 -1670 0 -31 -26 c-38
-31 -48 -78 -28 -127 31 -72 -107 -67 1716 -67 l1640 0 58 -22 c77 -29 152
-104 181 -181 57 -153 -6 -312 -152 -387 l-69 -35 -1886 0 -1886 0 -47 22
c-66 30 -133 96 -165 161 -72 148 -2 338 152 412 40 18 73 24 166 29 116 7
136 13 166 51 32 42 18 121 -28 154 -30 21 -239 21 -316 1z"/>
<path d="M660 3104 c-242 -52 -420 -274 -420 -524 0 -252 179 -473 425 -525
60 -13 330 -15 1919 -15 1318 0 1868 3 1915 11 110 19 202 68 285 151 114 116
156 218 156 378 0 160 -42 262 -155 376 -109 111 -207 152 -382 161 -123 7
-160 -2 -193 -45 -31 -39 -27 -106 8 -141 25 -26 34 -28 137 -34 61 -4 131
-14 157 -23 62 -21 142 -93 176 -158 23 -44 27 -63 27 -136 0 -73 -4 -92 -27
-136 -35 -67 -115 -138 -181 -161 -50 -17 -139 -18 -1922 -18 l-1870 0 -49 23
c-107 49 -166 119 -193 227 -15 60 -15 70 0 130 27 108 86 178 193 227 l49 23
1663 5 1664 5 19 24 c44 54 35 131 -20 168 l-34 23 -1641 -1 c-1369 0 -1652
-3 -1706 -15z"/>
<path d="M646 1714 c-248 -60 -419 -296 -403 -554 15 -232 164 -419 386 -484
77 -23 287 -22 320 0 46 33 60 112 28 154 -30 38 -50 44 -166 51 -93 5 -126
11 -166 29 -154 74 -224 264 -152 412 32 65 99 131 165 161 l47 22 1886 0
1886 0 69 -35 c146 -75 209 -234 152 -387 -29 -77 -104 -152 -181 -181 l-58
-22 -1477 0 c-1386 0 -1479 -1 -1512 -18 -40 -20 -66 -75 -56 -118 4 -15 20
-39 36 -55 l28 -29 1512 0 1511 0 76 25 c226 76 363 268 363 507 0 57 -6 116
-16 149 -54 185 -201 326 -389 374 -52 13 -290 15 -1945 14 -1590 -1 -1894 -3
-1944 -15z"/>
<path d="M1123 844 c-65 -33 -80 -125 -28 -177 59 -58 148 -39 181 40 39 91
-63 182 -153 137z"/>
</g>
</svg>
