<svg xmlns="http://www.w3.org/2000/svg" height="48" viewBox="0 -960 960 960" width="48"><path d="M568-85q-22.462 22-52.731 22Q485-63 463-85L84-463q-12-12-16-25.5T64-516v-307q0-31 21-52t52-21h307q15.064 0 28.971 4.417Q486.878-887.167 499-875l377 375q23 23 22.5 54T875-392L568-85Zm-49-50 307-307-381.867-381H137v307.319L519-135ZM243-660q24.417 0 41.708-17.439Q302-694.877 302-718.647t-17.542-41.061Q266.917-777 243-777q-24.417 0-41.208 17.25Q185-742.5 185-719q0 23.917 16.792 41.458Q218.583-660 243-660ZM137-823Z"/></svg>